<?xml version="1.0" encoding="UTF-8"?>
<svg version="1.1" xmlns="http://www.w3.org/2000/svg" width="581" height="599">
<path d="M0 0 C191.73 0 383.46 0 581 0 C581 197.67 581 395.34 581 599 C389.27 599 197.54 599 0 599 C0 401.33 0 203.66 0 0 Z " fill="#FEFEFE" transform="translate(0,0)"/>
<path d="M0 0 C1.30427696 -0.00929787 1.30427696 -0.00929787 2.63490295 -0.01878357 C3.62280319 -0.0346199 4.61070343 -0.05045624 5.62854004 -0.06677246 C6.69419693 -0.06181259 7.75985382 -0.05685272 8.85780334 -0.05174255 C9.95387405 -0.05794113 11.04994476 -0.06413971 12.17922974 -0.07052612 C14.49842947 -0.07763362 16.81768013 -0.07443418 19.13685608 -0.06175232 C22.68867342 -0.04790176 26.23784994 -0.08192863 29.78944397 -0.12010193 C32.04139774 -0.12105322 34.29335482 -0.11919375 36.54530334 -0.11424255 C37.608936 -0.12750076 38.67256866 -0.14075897 39.76843262 -0.15441895 C47.10297978 -0.06166432 47.10297978 -0.06166432 50.43617249 2.8271637 C52.19841287 6.38330342 52.29940422 9.11907106 52.26795959 13.0771637 C52.28342834 15.02815979 52.28342834 15.02815979 52.29920959 17.01856995 C51.76795959 20.5146637 51.76795959 20.5146637 49.86170959 22.97950745 C47.76795959 24.5146637 47.76795959 24.5146637 45.76795959 24.5146637 C45.85257296 32.2169566 45.94753672 39.91906401 46.05548668 47.62106419 C46.10529925 51.19794445 46.15162968 54.77479733 46.18983459 58.3518219 C46.22687862 61.80789647 46.27328845 65.26373308 46.3260231 68.71960258 C46.35340315 70.6708685 46.37123969 72.62226083 46.38890076 74.57363892 C46.57381007 85.747625 48.42871398 92.82345178 55.76795959 101.5146637 C57.47501105 102.93720657 59.1994766 104.11953013 61.07655334 105.3037262 C63.5755053 107.0928142 65.3321513 109.35873177 67.21327209 111.76856995 C68.80042173 113.66175272 68.80042173 113.66175272 71.21717834 115.3896637 C73.98165281 117.69268683 75.57125896 119.89933525 77.45545959 122.9521637 C78.03682678 123.87899963 78.61819397 124.80583557 79.21717834 125.76075745 C81.28080308 129.42538071 82.76795959 132.27461409 82.76795959 136.5146637 C83.42795959 136.5146637 84.08795959 136.5146637 84.76795959 136.5146637 C86.89754927 144.32308219 87.04541115 151.67353756 87.01087952 159.73927307 C87.01195426 161.15768013 87.01389578 162.57608675 87.01663208 163.99449158 C87.02144941 167.82039407 87.0138665 171.64617864 87.00367904 175.47206688 C86.99485866 179.48077116 86.99665667 183.48947219 86.99703979 187.4981842 C86.99610569 194.21951764 86.9874515 200.94080569 86.97377014 207.66212463 C86.95799614 215.4404379 86.95277393 223.21870168 86.95350569 230.99702978 C86.95411492 238.48336824 86.94902247 245.96969056 86.94071388 253.45602417 C86.93717756 256.64262009 86.93535016 259.82921031 86.93482018 263.01580811 C86.93381925 266.75868682 86.92774339 270.50152367 86.91765404 274.24438858 C86.91472256 275.6210975 86.91350497 276.99781124 86.91408157 278.37452316 C86.91456894 280.24574476 86.90832289 282.11696459 86.90167236 283.98817444 C86.89999652 285.0374688 86.89832067 286.08676315 86.89659405 287.16785431 C86.76795959 289.5146637 86.76795959 289.5146637 85.76795959 290.5146637 C84.13572503 290.61072234 82.4993157 290.6365419 80.86425781 290.63491821 C79.2719207 290.63698021 79.2719207 290.63698021 77.64741516 290.63908386 C75.88551849 290.63369095 75.88551849 290.63369095 74.08802795 290.62818909 C72.85893204 290.62833511 71.62983612 290.62848114 70.36349487 290.62863159 C66.98347288 290.62805262 63.60351131 290.62302333 60.22350001 290.61605763 C56.69474765 290.60982358 53.16599457 290.60922026 49.63723755 290.60803223 C42.95072841 290.60491906 36.26423554 290.59670588 29.57773358 290.58668274 C21.96721657 290.57552113 14.3566988 290.57001103 6.74617565 290.5649873 C-8.91323914 290.55452325 -24.57263768 290.5369241 -40.23204041 290.5146637 C-40.32577778 271.86811854 -40.39616293 253.22162168 -40.43928909 234.57488918 C-40.45985192 225.91549201 -40.48785128 217.25624185 -40.53379822 208.59693909 C-40.57385952 201.04321485 -40.59951877 193.48959715 -40.60839438 185.93576962 C-40.61357674 181.94171988 -40.62562343 177.94797477 -40.65496063 173.95402336 C-40.68243607 170.18240004 -40.69042185 166.41120213 -40.68447113 162.63948822 C-40.6860688 160.62055484 -40.70742127 158.60166608 -40.72972107 156.58285522 C-40.66469212 141.91025111 -37.30053768 130.16163118 -28.23204041 118.5146637 C-27.67903259 117.8031012 -27.12602478 117.0915387 -26.55625916 116.3584137 C-23.77183944 112.96242892 -20.85956077 110.03377506 -17.23204041 107.5146637 C-16.57204041 107.5146637 -15.91204041 107.5146637 -15.23204041 107.5146637 C-14.73704041 106.0296637 -14.73704041 106.0296637 -14.23204041 104.5146637 C-12.48985291 102.8662262 -12.48985291 102.8662262 -10.35704041 101.1396637 C-4.55885258 96.18014232 -2.843483 91.82813393 -1.23204041 84.5146637 C-0.57204041 84.5146637 0.08795959 84.5146637 0.76795959 84.5146637 C0.75309429 76.87352841 0.71154477 69.23293449 0.63586903 61.59216595 C0.60156894 58.04419175 0.57648457 54.49664945 0.57240295 50.94850159 C0.56730819 46.86977365 0.52223715 42.79234144 0.47499084 38.71388245 C0.47892349 37.43881332 0.48285614 36.1637442 0.48690796 34.85003662 C0.46726486 33.66903885 0.44762177 32.48804108 0.42738342 31.27125549 C0.42072159 30.22978867 0.41405975 29.18832184 0.40719604 28.11529541 C0.01324367 25.27609837 0.01324367 25.27609837 -2.73480225 23.77546692 C-3.55889084 23.35940186 -4.38297943 22.94333679 -5.23204041 22.5146637 C-5.84727478 20.58522034 -5.84727478 20.58522034 -5.82579041 18.42481995 C-5.82321228 17.64042542 -5.82063416 16.85603088 -5.81797791 16.04786682 C-5.77543884 14.82486877 -5.77543884 14.82486877 -5.73204041 13.5771637 C-5.73590759 12.35996643 -5.73590759 12.35996643 -5.73985291 11.11817932 C-5.57854233 1.28629984 -5.57854233 1.28629984 0 0 Z " fill="#042341" transform="translate(241.23204040527344,49.48533630371094)"/>
<path d="M0 0 C4.24994196 -0.14971343 8.49843845 -0.25784152 12.75024414 -0.32958984 C14.1925738 -0.3595344 15.63472494 -0.40030733 17.07641602 -0.45263672 C25.10548147 -0.73650662 31.64696321 -0.83839419 38.30297852 4.31005859 C40.10101054 6.10058912 41.60163246 7.88188051 43 10 C43 10.66 43 11.32 43 12 C43.66 12 44.32 12 45 12 C49 18.75 49 18.75 49 21 C49.66 21 50.32 21 51 21 C52.5859375 23.37890625 52.5859375 23.37890625 54.375 26.5625 C55.00148438 27.6659375 55.62796875 28.769375 56.2734375 29.90625 C56.84320313 30.9271875 57.41296875 31.948125 58 33 C60.96285744 38.29531968 64.16756462 43.38644152 67.51171875 48.44921875 C70.06077775 52.81807841 70.12049326 56.49148181 70.09765625 61.515625 C70.09443359 62.76601563 70.09121094 64.01640625 70.08789062 65.3046875 C70.07951172 66.60664063 70.07113281 67.90859375 70.0625 69.25 C70.05798828 70.56742187 70.05347656 71.88484375 70.04882812 73.2421875 C70.03704316 76.49483741 70.02059011 79.74739584 70 83 C70.66 83 71.32 83 72 83 C73.38226016 85.76452033 73.09525387 88.0461363 73.0625 91.125 C73.05347656 92.22070312 73.04445313 93.31640625 73.03515625 94.4453125 C73.01775391 95.70988281 73.01775391 95.70988281 73 97 C72.01 97.33 71.02 97.66 70 98 C70 98.66 70 99.32 70 100 C63.4 100 56.8 100 50 100 C49.608125 98.47375 49.21625 96.9475 48.8125 95.375 C46.55060321 87.95053321 42.5108261 83.9976719 36.0625 79.98046875 C29.25999522 76.74670227 20.33646421 77.05466847 13.25 79.0625 C4.18215699 84.46832949 0.28836195 90.13491414 -3 100 C-32.37 100 -61.74 100 -92 100 C-92.99 97.03 -93.98 94.06 -95 91 C-97.05787515 88.15399323 -97.05787515 88.15399323 -99 86 C-99 85.34 -99 84.68 -99 84 C-99.721875 83.731875 -100.44375 83.46375 -101.1875 83.1875 C-104 82 -104 82 -106.5625 80.4375 C-112.62144479 76.86427615 -120.61199975 77.07429231 -127.3515625 78.49609375 C-133.55170898 80.61467662 -138.22886505 84.10212257 -141.25 90 C-142.59894 92.96095129 -143.80746952 95.97280724 -145 99 C-147.3021725 101.3021725 -152.78442274 100.23290137 -155.875 100.25 C-156.79925781 100.270625 -157.72351563 100.29125 -158.67578125 100.3125 C-159.56394531 100.31765625 -160.45210937 100.3228125 -161.3671875 100.328125 C-162.18300293 100.3374707 -162.99881836 100.34681641 -163.83935547 100.35644531 C-166 100 -166 100 -167.7668457 98.8034668 C-169.42718447 96.37525011 -169.37274572 94.74502069 -169.36328125 91.81640625 C-169.36263672 90.80642578 -169.36199219 89.79644531 -169.36132812 88.75585938 C-169.34521484 87.70205078 -169.32910156 86.64824219 -169.3125 85.5625 C-169.31572266 84.51255859 -169.31894531 83.46261719 -169.32226562 82.38085938 C-169.26725618 74.53451236 -169.26725618 74.53451236 -167 70 C-112.22 70 -57.44 70 -1 70 C-1 47.56 -1 25.12 -1 2 C-0.67 1.34 -0.34 0.68 0 0 Z " fill="#052340" transform="translate(337,277)"/>
<path d="M0 0 C3.02674748 0.79009147 4.18874143 2.02569375 6.03515625 4.53125 C6.42578125 7.765625 6.42578125 7.765625 6.28515625 11.28125 C6.2490625 12.45171875 6.21296875 13.6221875 6.17578125 14.828125 C6.129375 15.72015625 6.08296875 16.6121875 6.03515625 17.53125 C7.02515625 17.469375 8.01515625 17.4075 9.03515625 17.34375 C14.81118672 17.33203391 20.02537702 19.81761958 25.03515625 22.53125 C25.03515625 23.19125 25.03515625 23.85125 25.03515625 24.53125 C25.71578125 24.716875 26.39640625 24.9025 27.09765625 25.09375 C35.47534219 29.19346865 39.82417104 37.22488548 43.28515625 45.53125 C44.28337363 49.5241195 44.66251605 53.43220776 45.03515625 57.53125 C48.99515625 57.53125 52.95515625 57.53125 57.03515625 57.53125 C58.21188823 59.88471396 58.20139491 61.4118533 58.22265625 64.03125 C58.23683594 64.8253125 58.25101562 65.619375 58.265625 66.4375 C58.03515625 68.53125 58.03515625 68.53125 56.03515625 70.53125 C53.65234375 70.7265625 53.65234375 70.7265625 50.91015625 70.65625 C50.00007813 70.63820313 49.09 70.62015625 48.15234375 70.6015625 C47.45367187 70.57835937 46.755 70.55515625 46.03515625 70.53125 C45.70515625 73.17125 45.37515625 75.81125 45.03515625 78.53125 C44.37515625 78.53125 43.71515625 78.53125 43.03515625 78.53125 C42.75671875 80.4803125 42.75671875 80.4803125 42.47265625 82.46875 C40.48170003 91.33755496 33.274547 98.3832388 26.03515625 103.53125 C22.53515625 104.96875 22.53515625 104.96875 20.03515625 105.53125 C20.03515625 106.19125 20.03515625 106.85125 20.03515625 107.53125 C18.45402705 108.03817692 16.87014242 108.53651443 15.28515625 109.03125 C14.4034375 109.3096875 13.52171875 109.588125 12.61328125 109.875 C10.03515625 110.53125 10.03515625 110.53125 6.03515625 110.53125 C6.0815625 111.27890625 6.12796875 112.0265625 6.17578125 112.796875 C6.46750016 120.75663383 6.46750016 120.75663383 4.53515625 124.21875 C0.75867131 126.20140459 -1.71289195 126.00368909 -5.96484375 125.53125 C-7.69921875 124.390625 -7.69921875 124.390625 -8.96484375 122.53125 C-9.2578125 119.61328125 -9.2578125 119.61328125 -9.15234375 116.34375 C-9.11173828 114.71373047 -9.11173828 114.71373047 -9.0703125 113.05078125 C-9.03550781 112.21933594 -9.00070312 111.38789063 -8.96484375 110.53125 C-9.87234375 110.61375 -10.77984375 110.69625 -11.71484375 110.78125 C-17.32277079 110.79278894 -22.93187332 108.90484331 -27.96484375 106.53125 C-28.29484375 105.54125 -28.62484375 104.55125 -28.96484375 103.53125 C-30.62839165 102.85683869 -32.29551317 102.1912179 -33.96484375 101.53125 C-36.27734375 99.53125 -36.27734375 99.53125 -37.96484375 97.53125 C-37.96484375 96.87125 -37.96484375 96.21125 -37.96484375 95.53125 C-38.5784375 95.2940625 -39.19203125 95.056875 -39.82421875 94.8125 C-42.49944325 93.21127074 -43.04647601 91.88726003 -44.21484375 89.03125 C-44.55 88.2371875 -44.88515625 87.443125 -45.23046875 86.625 C-45.96484375 84.53125 -45.96484375 84.53125 -45.96484375 82.53125 C-46.62484375 82.53125 -47.28484375 82.53125 -47.96484375 82.53125 C-49.15771786 78.65440913 -49.96484375 75.61503077 -49.96484375 71.53125 C-50.72410156 71.57765625 -51.48335937 71.6240625 -52.265625 71.671875 C-53.25949219 71.70796875 -54.25335938 71.7440625 -55.27734375 71.78125 C-56.26347656 71.82765625 -57.24960938 71.8740625 -58.265625 71.921875 C-60.96484375 71.53125 -60.96484375 71.53125 -62.80078125 69.734375 C-64.48305144 66.55048109 -64.28142865 64.07700086 -63.96484375 60.53125 C-63.30484375 59.21125 -62.64484375 57.89125 -61.96484375 56.53125 C-58.00484375 56.53125 -54.04484375 56.53125 -49.96484375 56.53125 C-49.86171875 55.005 -49.75859375 53.47875 -49.65234375 51.90625 C-48.81712802 43.87012029 -44.83444462 38.71094654 -39.96484375 32.53125 C-39.53945312 31.96921875 -39.1140625 31.4071875 -38.67578125 30.828125 C-35.8382791 27.20344484 -32.91981204 24.85770193 -28.96484375 22.53125 C-28.37960938 22.180625 -27.794375 21.83 -27.19140625 21.46875 C-21.69314588 18.41665445 -16.1522167 17.3956624 -9.96484375 16.53125 C-9.92746094 15.71140625 -9.89007813 14.8915625 -9.8515625 14.046875 C-9.78582031 12.96921875 -9.72007812 11.8915625 -9.65234375 10.78125 C-9.56533203 9.18023437 -9.56533203 9.18023437 -9.4765625 7.546875 C-8.43198895 1.3910675 -6.14709837 0.09475296 0 0 Z " fill="#FDF6F6" transform="translate(266.96484375,195.46875)"/>
<path d="M0 0 C6.6 0 13.2 0 20 0 C20 0.66 20 1.32 20 2 C21.01320313 2.18175781 21.01320313 2.18175781 22.046875 2.3671875 C22.93890625 2.53476562 23.8309375 2.70234375 24.75 2.875 C25.63171875 3.03742188 26.5134375 3.19984375 27.421875 3.3671875 C29.86947744 3.96796264 31.80599857 4.77997117 34 6 C34 6.66 34 7.32 34 8 C35.65 8.66 37.3 9.32 39 10 C37.63589551 15.59282842 34.84616474 18.91193811 31 23 C27.39825993 21.66221083 24.28100043 19.98586868 21 18 C14.24506302 15.74835434 3.80920672 15.61402631 -2.6875 18.625 C-7.79342338 21.81479319 -11.19808691 26.24499124 -13 32 C-13.21541358 34.83674511 -13.32488272 37.54183445 -13.3125 40.375 C-13.32861328 41.10460937 -13.34472656 41.83421875 -13.36132812 42.5859375 C-13.36712916 49.08309286 -11.97114531 53.77614376 -7.5625 58.75 C-1.79957878 63.81012595 1.5247241 65.14040608 9.3125 65.125 C10.60800781 65.12757813 11.90351563 65.13015625 13.23828125 65.1328125 C16.59562923 65.01427685 19.7083127 64.64302729 23 64 C23 63.34 23 62.68 23 62 C24.32 62 25.64 62 27 62 C27 57.38 27 52.76 27 48 C21.39 48 15.78 48 10 48 C10 43.71 10 39.42 10 35 C20.56 35 31.12 35 42 35 C42.18437051 39.59389857 42.34325 44.17486996 42.43945312 48.76953125 C42.47955298 50.3295448 42.53405278 51.88926009 42.60351562 53.44824219 C43.16438978 66.36484394 43.16438978 66.36484394 40.3659668 70.29467773 C38.30627941 71.86873397 36.36720974 72.95663529 34 74 C33.07832031 74.54269531 32.15664063 75.08539063 31.20703125 75.64453125 C30.41683594 76.02996094 29.62664062 76.41539062 28.8125 76.8125 C28.01457031 77.21082031 27.21664062 77.60914063 26.39453125 78.01953125 C20.57674494 80.40169171 14.68336816 80.18324734 8.5 80.1875 C7.09427734 80.20586914 7.09427734 80.20586914 5.66015625 80.22460938 C0.99583185 80.23453347 -2.7980507 80.24202949 -7 78 C-7.94617188 77.53464844 -8.89234375 77.06929688 -9.8671875 76.58984375 C-16.72719802 72.82129251 -22.18320124 68.99128834 -26 62 C-26.67578125 59.2265625 -26.67578125 59.2265625 -27 57 C-27.66 57 -28.32 57 -29 57 C-32.10230009 47.74273654 -33.27121071 34.96401341 -29.3125 25.8125 C-28.58003967 24.5191697 -27.80975797 23.24639216 -27 22 C-26.62617188 21.32066406 -26.25234375 20.64132812 -25.8671875 19.94140625 C-21.43409842 12.17616081 -15.54265194 6.03664581 -7 3 C-4.63413621 2.47126529 -2.42463902 2.20205325 0 2 C0 1.34 0 0.68 0 0 Z " fill="#0C2843" transform="translate(368,433)"/>
<path d="M0 0 C15.84653032 -0.59972313 25.91239207 0.51622614 39 10 C37.72669677 13.47873754 36.26605896 16.33517224 34.0625 19.3125 C33.55847656 20.00988281 33.05445313 20.70726562 32.53515625 21.42578125 C32.02855469 21.94527344 31.52195313 22.46476562 31 23 C30.01 23 29.02 23 28 23 C28 22.34 28 21.68 28 21 C19.26297245 16.2954467 9.09749064 15.39525629 -0.57421875 17.58203125 C-6.21503168 20.00902149 -9.77694624 24.92719365 -13 30 C-13.92188461 32.76565382 -14.11785222 34.38283702 -14.09765625 37.23046875 C-14.09443359 38.03291016 -14.09121094 38.83535156 -14.08789062 39.66210938 C-14.07951172 40.49548828 -14.07113281 41.32886719 -14.0625 42.1875 C-14.05798828 43.03248047 -14.05347656 43.87746094 -14.04882812 44.74804688 C-14.03705403 46.83206155 -14.0191189 48.91603977 -14 51 C-13.34 51 -12.68 51 -12 51 C-11.75765625 51.55429687 -11.5153125 52.10859375 -11.265625 52.6796875 C-10.93046875 53.40414062 -10.5953125 54.12859375 -10.25 54.875 C-9.92515625 55.59429687 -9.6003125 56.31359375 -9.265625 57.0546875 C-7.78070314 59.3370674 -6.49584592 60.00375898 -4 61 C-4 61.66 -4 62.32 -4 63 C1.02502418 64.64042725 5.21907516 65.24778479 10.5625 65.1875 C11.82191406 65.18105469 13.08132812 65.17460937 14.37890625 65.16796875 C17.67228107 65.01520163 20.7664621 64.62279235 24 64 C24 63.34 24 62.68 24 62 C24.66 61.67 25.32 61.34 26 61 C26.46954261 57.95418731 26.46954261 57.95418731 26.625 54.4375 C26.810625 51.2509375 26.810625 51.2509375 27 48 C21.72 48 16.44 48 11 48 C11 43.71 11 39.42 11 35 C21.23 35 31.46 35 42 35 C42.16129092 39.59295084 42.3003644 44.17599719 42.38452148 48.76953125 C42.41960652 50.32944098 42.46729082 51.88912241 42.52807617 53.44824219 C43.01798579 66.34233395 43.01798579 66.34233395 40.59082031 70.29467773 C38.79914263 71.87346596 37.13593407 72.94503819 35 74 C34.11054688 74.54269531 33.22109375 75.08539063 32.3046875 75.64453125 C31.50289062 76.02996094 30.70109375 76.41539062 29.875 76.8125 C29.06804687 77.21082031 28.26109375 77.60914063 27.4296875 78.01953125 C21.75407553 80.30985055 16.16054189 80.18308159 10.125 80.1875 C9.25230469 80.19974609 8.37960938 80.21199219 7.48046875 80.22460938 C2.25253908 80.2364017 -2.05237638 79.7053798 -7 78 C-7 77.34 -7 76.68 -7 76 C-7.556875 75.896875 -8.11375 75.79375 -8.6875 75.6875 C-15.35559663 73.70509289 -21.41481261 68.65902401 -24.9375 62.75 C-26 60 -26 60 -26 58 C-26.66 58 -27.32 58 -28 58 C-30.05763778 52.0638783 -30.30281079 46.69117808 -30.25 40.4375 C-30.25773437 39.51775391 -30.26546875 38.59800781 -30.2734375 37.65039062 C-30.25920679 32.70166211 -29.94470037 28.63795603 -28 24 C-27.34 24 -26.68 24 -26 24 C-25.95875 23.34 -25.9175 22.68 -25.875 22 C-24.60966597 17.66171188 -22.08371228 14.28315636 -19 11 C-18.01 10.67 -17.02 10.34 -16 10 C-16 9.34 -16 8.68 -16 8 C-14.08850332 6.9901527 -12.17058431 5.99245505 -10.25 5 C-9.18265625 4.443125 -8.1153125 3.88625 -7.015625 3.3125 C-4 2 -4 2 0 2 C0 1.34 0 0.68 0 0 Z " fill="#0A2742" transform="translate(95,433)"/>
<path d="M0 0 C0.68835938 0.05220703 1.37671875 0.10441406 2.0859375 0.15820312 C3.76612758 0.28655098 5.44564749 0.42362225 7.125 0.5625 C7.125 1.2225 7.125 1.8825 7.125 2.5625 C8.61 2.81 8.61 2.81 10.125 3.0625 C15.31235005 4.52342716 18.89576934 8.38812866 22.125 12.5625 C22.8515625 14.8203125 22.8515625 14.8203125 23.125 16.5625 C23.785 16.5625 24.445 16.5625 25.125 16.5625 C26.80437565 20.95011781 27.37241889 24.55998488 27.3125 29.25 C27.30605469 30.36761719 27.29960937 31.48523438 27.29296875 32.63671875 C27.125 35.5625 27.125 35.5625 26.125 38.5625 C25.465 38.5625 24.805 38.5625 24.125 38.5625 C24.104375 39.3875 24.08375 40.2125 24.0625 41.0625 C22.409365 47.23420399 17.45187232 52.12820906 12.125 55.5625 C11.135 55.5625 10.145 55.5625 9.125 55.5625 C9.125 56.2225 9.125 56.8825 9.125 57.5625 C0.78035648 60.66748363 -8.57703897 60.86141802 -16.875 57.5625 C-24.75873027 53.55493711 -29.13707354 48.08539632 -33.01171875 40.26953125 C-34.12602832 36.77533879 -34.25811599 33.44547235 -34.25 29.8125 C-34.24911377 29.10601318 -34.24822754 28.39952637 -34.24731445 27.67163086 C-34.12217485 22.13309173 -33.34380232 17.02901803 -29.875 12.5625 C-28.885 12.2325 -27.895 11.9025 -26.875 11.5625 C-26.606875 10.964375 -26.33875 10.36625 -26.0625 9.75 C-24.32641823 6.55195463 -22.00051489 5.33975357 -18.875 3.5625 C-16 2.8125 -16 2.8125 -13.875 2.5625 C-13.875 1.9025 -13.875 1.2425 -13.875 0.5625 C-9.1460653 -0.43190216 -4.78229882 -0.40315891 0 0 Z " fill="#0B2742" transform="translate(452.875,453.4375)"/>
<path d="M0 0 C0 0.66 0 1.32 0 2 C0.70125 2.061875 1.4025 2.12375 2.125 2.1875 C6.50764252 3.42607289 9.76825712 5.83137161 12.01171875 9.78125 C13.77550663 13.84226404 15.12748996 17.58568273 15.11352539 22.01245117 C15.11344986 22.81305466 15.11337433 23.61365814 15.11329651 24.43852234 C15.10813522 25.29798965 15.10297394 26.15745697 15.09765625 27.04296875 C15.0962413 27.9265657 15.09482635 28.81016266 15.09336853 29.72053528 C15.08777069 32.54289128 15.07521861 35.36516797 15.0625 38.1875 C15.05748472 40.10091031 15.05292186 42.01432187 15.04882812 43.92773438 C15.03780197 48.61852014 15.02053883 53.30924663 15 58 C10.05 58 5.1 58 0 58 C-0.495 56.02 -0.495 56.02 -1 54 C-1.763125 54.639375 -2.52625 55.27875 -3.3125 55.9375 C-9.25493109 60.49797037 -16.85534272 59.40956634 -24 59 C-29.69215971 57.89162567 -32.81690507 54.62995626 -36 50 C-36 49.01 -36 48.02 -36 47 C-36.66 47 -37.32 47 -38 47 C-38.73852694 39.68311277 -38.12502703 34.95771085 -33.8984375 28.875 C-29.55527201 24.58545384 -25.68708449 23.81549904 -19.7265625 23.70703125 C-17.35919707 23.72686951 -14.99192038 23.76249464 -12.625 23.8125 C-10.80548828 23.83280273 -10.80548828 23.83280273 -8.94921875 23.85351562 C-5.96568794 23.88875418 -2.98307542 23.93802475 0 24 C-1.48490427 17.94399357 -1.48490427 17.94399357 -6 14 C-6 13.34 -6 12.68 -6 12 C-8.04190981 12.14238837 -10.08352045 12.28907028 -12.125 12.4375 C-13.83042969 12.55931641 -13.83042969 12.55931641 -15.5703125 12.68359375 C-18.7540478 12.97730965 -21.85510907 13.43124313 -25 14 C-25 14.66 -25 15.32 -25 16 C-26.32 16.33 -27.64 16.66 -29 17 C-29.83819158 15.37750059 -30.6704116 13.75191503 -31.5 12.125 C-31.9640625 11.22007812 -32.428125 10.31515625 -32.90625 9.3828125 C-34 7 -34 7 -34 5 C-23.15934801 -0.91109998 -12.22377312 -2.82087072 0 0 Z " fill="#0B2742" transform="translate(210,454)"/>
<path d="M0 0 C3.02674748 0.79009147 4.18874143 2.02569375 6.03515625 4.53125 C6.42578125 7.765625 6.42578125 7.765625 6.28515625 11.28125 C6.2490625 12.45171875 6.21296875 13.6221875 6.17578125 14.828125 C6.129375 15.72015625 6.08296875 16.6121875 6.03515625 17.53125 C7.02515625 17.469375 8.01515625 17.4075 9.03515625 17.34375 C14.81118672 17.33203391 20.02537702 19.81761958 25.03515625 22.53125 C25.03515625 23.19125 25.03515625 23.85125 25.03515625 24.53125 C25.71578125 24.716875 26.39640625 24.9025 27.09765625 25.09375 C35.47534219 29.19346865 39.82417104 37.22488548 43.28515625 45.53125 C44.28337363 49.5241195 44.66251605 53.43220776 45.03515625 57.53125 C48.99515625 57.53125 52.95515625 57.53125 57.03515625 57.53125 C58.21188823 59.88471396 58.20139491 61.4118533 58.22265625 64.03125 C58.23683594 64.8253125 58.25101562 65.619375 58.265625 66.4375 C58.03515625 68.53125 58.03515625 68.53125 56.03515625 70.53125 C53.65234375 70.7265625 53.65234375 70.7265625 50.91015625 70.65625 C50.00007813 70.63820313 49.09 70.62015625 48.15234375 70.6015625 C47.45367187 70.57835937 46.755 70.55515625 46.03515625 70.53125 C45.70515625 73.17125 45.37515625 75.81125 45.03515625 78.53125 C44.37515625 78.53125 43.71515625 78.53125 43.03515625 78.53125 C42.75671875 80.4803125 42.75671875 80.4803125 42.47265625 82.46875 C40.48170003 91.33755496 33.274547 98.3832388 26.03515625 103.53125 C22.53515625 104.96875 22.53515625 104.96875 20.03515625 105.53125 C20.03515625 106.19125 20.03515625 106.85125 20.03515625 107.53125 C18.45402705 108.03817692 16.87014242 108.53651443 15.28515625 109.03125 C14.4034375 109.3096875 13.52171875 109.588125 12.61328125 109.875 C10.03515625 110.53125 10.03515625 110.53125 6.03515625 110.53125 C6.0815625 111.27890625 6.12796875 112.0265625 6.17578125 112.796875 C6.46750016 120.75663383 6.46750016 120.75663383 4.53515625 124.21875 C0.75867131 126.20140459 -1.71289195 126.00368909 -5.96484375 125.53125 C-7.69921875 124.390625 -7.69921875 124.390625 -8.96484375 122.53125 C-9.2578125 119.61328125 -9.2578125 119.61328125 -9.15234375 116.34375 C-9.11173828 114.71373047 -9.11173828 114.71373047 -9.0703125 113.05078125 C-9.03550781 112.21933594 -9.00070312 111.38789063 -8.96484375 110.53125 C-9.87234375 110.61375 -10.77984375 110.69625 -11.71484375 110.78125 C-17.32277079 110.79278894 -22.93187332 108.90484331 -27.96484375 106.53125 C-28.29484375 105.54125 -28.62484375 104.55125 -28.96484375 103.53125 C-30.62839165 102.85683869 -32.29551317 102.1912179 -33.96484375 101.53125 C-36.27734375 99.53125 -36.27734375 99.53125 -37.96484375 97.53125 C-37.96484375 96.87125 -37.96484375 96.21125 -37.96484375 95.53125 C-38.5784375 95.2940625 -39.19203125 95.056875 -39.82421875 94.8125 C-42.49944325 93.21127074 -43.04647601 91.88726003 -44.21484375 89.03125 C-44.55 88.2371875 -44.88515625 87.443125 -45.23046875 86.625 C-45.96484375 84.53125 -45.96484375 84.53125 -45.96484375 82.53125 C-46.62484375 82.53125 -47.28484375 82.53125 -47.96484375 82.53125 C-49.15771786 78.65440913 -49.96484375 75.61503077 -49.96484375 71.53125 C-50.72410156 71.57765625 -51.48335937 71.6240625 -52.265625 71.671875 C-53.25949219 71.70796875 -54.25335938 71.7440625 -55.27734375 71.78125 C-56.26347656 71.82765625 -57.24960938 71.8740625 -58.265625 71.921875 C-60.96484375 71.53125 -60.96484375 71.53125 -62.80078125 69.734375 C-64.48305144 66.55048109 -64.28142865 64.07700086 -63.96484375 60.53125 C-63.30484375 59.21125 -62.64484375 57.89125 -61.96484375 56.53125 C-58.00484375 56.53125 -54.04484375 56.53125 -49.96484375 56.53125 C-49.86171875 55.005 -49.75859375 53.47875 -49.65234375 51.90625 C-48.81712802 43.87012029 -44.83444462 38.71094654 -39.96484375 32.53125 C-39.53945312 31.96921875 -39.1140625 31.4071875 -38.67578125 30.828125 C-35.8382791 27.20344484 -32.91981204 24.85770193 -28.96484375 22.53125 C-28.37960938 22.180625 -27.794375 21.83 -27.19140625 21.46875 C-21.69314588 18.41665445 -16.1522167 17.3956624 -9.96484375 16.53125 C-9.92746094 15.71140625 -9.89007813 14.8915625 -9.8515625 14.046875 C-9.78582031 12.96921875 -9.72007812 11.8915625 -9.65234375 10.78125 C-9.56533203 9.18023437 -9.56533203 9.18023437 -9.4765625 7.546875 C-8.43198895 1.3910675 -6.14709837 0.09475296 0 0 Z M-2.96484375 4.53125 C-3.62484375 4.86125 -4.28484375 5.19125 -4.96484375 5.53125 C-5.2772583 8.24571979 -5.47820967 10.87034361 -5.58984375 13.59375 C-5.62851562 14.35236328 -5.6671875 15.11097656 -5.70703125 15.89257812 C-5.80157937 17.77172195 -5.88431131 19.65145336 -5.96484375 21.53125 C-7.05023438 21.85738281 -8.135625 22.18351562 -9.25390625 22.51953125 C-10.69930376 22.96065906 -12.14461153 23.40208096 -13.58984375 23.84375 C-14.65912109 24.16375977 -14.65912109 24.16375977 -15.75 24.49023438 C-26.18740842 27.69806173 -32.29683311 32.80931467 -38.52734375 41.78125 C-41.72171642 47.89222381 -42.98733928 53.68871874 -43.96484375 60.53125 C-48.91484375 60.53125 -53.86484375 60.53125 -58.96484375 60.53125 C-58.96484375 62.51125 -58.96484375 64.49125 -58.96484375 66.53125 C-54.01484375 66.86125 -49.06484375 67.19125 -43.96484375 67.53125 C-43.61421875 69.449375 -43.26359375 71.3675 -42.90234375 73.34375 C-40.55107364 83.47739303 -35.46850302 91.5101405 -26.96484375 97.53125 C-26.38347656 97.98113281 -25.80210937 98.43101562 -25.203125 98.89453125 C-19.30323288 103.08753634 -12.99815507 104.13924047 -5.96484375 105.53125 C-5.46984375 112.95625 -5.46984375 112.95625 -4.96484375 120.53125 C-2.98484375 120.53125 -1.00484375 120.53125 1.03515625 120.53125 C1.03515625 115.25125 1.03515625 109.97125 1.03515625 104.53125 C2.68515625 104.44875 4.33515625 104.36625 6.03515625 104.28125 C16.14793207 103.33600975 24.30364748 97.67917226 31.22265625 90.40625 C36.40523704 84.03422444 39.47875701 75.69177223 40.03515625 67.53125 C44.65515625 67.20125 49.27515625 66.87125 54.03515625 66.53125 C54.03515625 64.55125 54.03515625 62.57125 54.03515625 60.53125 C49.41515625 60.53125 44.79515625 60.53125 40.03515625 60.53125 C40.01453125 59.12875 39.99390625 57.72625 39.97265625 56.28125 C38.96195342 46.24539798 32.48188478 37.94772725 25.03515625 31.53125 C23.85953125 30.4484375 23.85953125 30.4484375 22.66015625 29.34375 C15.73237817 24.56028418 9.3836233 23.00158617 1.03515625 22.53125 C1.03515625 17.25125 1.03515625 11.97125 1.03515625 6.53125 C-0.28484375 5.87125 -1.60484375 5.21125 -2.96484375 4.53125 Z " fill="#EFEBED" transform="translate(266.96484375,195.46875)"/>
<path d="M0 0 C1.32 0.66 2.64 1.32 4 2 C4 7.28 4 12.56 4 18 C5.423125 18.061875 6.84625 18.12375 8.3125 18.1875 C16.80746118 19.04423614 24.46970358 22.39436817 30 29 C30.55171875 29.58652344 31.1034375 30.17304688 31.671875 30.77734375 C38.94711306 38.62776089 42.54438398 45.21708752 43 56 C47.62 56 52.24 56 57 56 C57 57.98 57 59.96 57 62 C52.38 62.33 47.76 62.66 43 63 C42.88914062 64.02222656 42.77828125 65.04445313 42.6640625 66.09765625 C40.8652035 76.66859825 35.21153138 86.22107655 26.73046875 92.74609375 C19.13277219 98.00022222 13.1717437 99.33698238 4 100 C4 105.28 4 110.56 4 116 C2.02 116 0.04 116 -2 116 C-2.495 108.575 -2.495 108.575 -3 101 C-4.918125 100.649375 -6.83625 100.29875 -8.8125 99.9375 C-19.36685225 97.47979447 -27.80952586 91.93820418 -34 83 C-37.97436062 76.54563835 -39.82749458 70.46139811 -41 63 C-45.95 62.67 -50.9 62.34 -56 62 C-56 60.02 -56 58.04 -56 56 C-51.05 56 -46.1 56 -41 56 C-40.731875 54.123125 -40.46375 52.24625 -40.1875 50.3125 C-39.54253062 45.79771432 -38.53781263 42.78805856 -36 39 C-35.56300781 38.27039063 -35.12601563 37.54078125 -34.67578125 36.7890625 C-27.46460509 25.34209519 -19.18420086 21.05335686 -6.3125 17.75 C-5.219375 17.5025 -4.12625 17.255 -3 17 C-2.95101562 15.85660156 -2.90203125 14.71320313 -2.8515625 13.53515625 C-2.77654811 12.04424527 -2.70099972 10.55336108 -2.625 9.0625 C-2.5940625 8.30775391 -2.563125 7.55300781 -2.53125 6.77539062 C-2.4273685 4.84492605 -2.22104386 2.92057919 -2 1 C-1.34 0.67 -0.68 0.34 0 0 Z M-25.28125 34.08203125 C-31.10062209 40.57592147 -34 47.18416135 -34 56 C-30.04 56 -26.08 56 -22 56 C-22 57.98 -22 59.96 -22 62 C-27.94 62.495 -27.94 62.495 -34 63 C-34.01994528 68.89478888 -34.01994528 68.89478888 -32 73.875 C-31.62875 74.65617187 -31.2575 75.43734375 -30.875 76.2421875 C-30.58625 76.82226562 -30.2975 77.40234375 -30 78 C-29.34 78 -28.68 78 -28 78 C-27.835 78.680625 -27.67 79.36125 -27.5 80.0625 C-24.70041092 85.54502861 -19.88868364 88.96980892 -14.5625 91.875 C-10.30572499 93.21924474 -6.44724757 93.65790403 -2 94 C-1.67 89.71 -1.34 85.42 -1 81 C0.32 81 1.64 81 3 81 C3.495 87.435 3.495 87.435 4 94 C13.51388938 93.54695765 21.3481051 90.00291837 28 83 C33.99409389 76.16201711 35.8834718 71.08919948 36 62 C31.71 62 27.42 62 23 62 C23.33 60.35 23.66 58.7 24 57 C27.96 56.67 31.92 56.34 36 56 C35.85997483 46.33826295 32.72272985 39.71414307 25.8515625 32.85546875 C19.00472172 27.1497681 12.86979043 25 4 25 C3.67 28.96 3.34 32.92 3 37 C1.68 37 0.36 37 -1 37 C-1.495 31.06 -1.495 31.06 -2 25 C-11.24298476 25 -18.56635123 27.62857321 -25.28125 34.08203125 Z " fill="#E4423C" transform="translate(264,200)"/>
<path d="M0 0 C0 0.66 0 1.32 0 2 C2.31 2.66 4.62 3.32 7 4 C7.88336837 6.4667645 8.1312406 7.63859372 7.22265625 10.140625 C6.64837891 11.18476563 6.64837891 11.18476563 6.0625 12.25 C5.49208984 13.30960937 5.49208984 13.30960937 4.91015625 14.390625 C4.60980469 14.92171875 4.30945313 15.4528125 4 16 C2.9790625 15.566875 2.9790625 15.566875 1.9375 15.125 C-4.27094765 12.74729664 -9.39712948 11.66426082 -16 12 C-16.99 12.495 -16.99 12.495 -18 13 C-18 14.98 -18 16.96 -18 19 C-17.01 19.33 -16.02 19.66 -15 20 C-15 20.66 -15 21.32 -15 22 C-14.05125 22.103125 -13.1025 22.20625 -12.125 22.3125 C-3.13918793 23.67398668 3.8646912 25.95160347 10 33 C11.60975329 37.82925988 12.01374872 43.21613046 10.24609375 48.0703125 C7.55082 52.95351436 4.97629547 56.23988636 -0.25 58.25 C-4.4847769 59.14321095 -8.74950742 59.20843376 -13.0625 59.25 C-14.07135254 59.26401855 -14.07135254 59.26401855 -15.10058594 59.27832031 C-19.78711701 59.24852818 -23.59531959 58.44340632 -28 57 C-28 56.34 -28 55.68 -28 55 C-28.969375 54.7525 -29.93875 54.505 -30.9375 54.25 C-34 53 -34 53 -34.83203125 51.1875 C-35.05085222 48.33773854 -34.28596947 47.1334009 -32.75 44.75 C-32.31171875 44.04359375 -31.8734375 43.3371875 -31.421875 42.609375 C-30.95265625 42.07828125 -30.4834375 41.5471875 -30 41 C-29.01 41 -28.02 41 -27 41 C-27 41.66 -27 42.32 -27 43 C-18.66709244 45.57339792 -11.64973561 47.1624339 -3 45 C-3 43.02 -3 41.04 -3 39 C-3.57105469 38.84144531 -4.14210938 38.68289063 -4.73046875 38.51953125 C-26.41825302 32.27869031 -26.41825302 32.27869031 -31 26 C-31 25.34 -31 24.68 -31 24 C-31.66 24 -32.32 24 -33 24 C-34.17635297 21.64729407 -34.13359359 20.179248 -34.125 17.5625 C-34.12757813 16.78003906 -34.13015625 15.99757813 -34.1328125 15.19140625 C-34 13 -34 13 -33 10 C-32.34 10 -31.68 10 -31 10 C-30.773125 9.236875 -30.54625 8.47375 -30.3125 7.6875 C-28.71903821 4.4246973 -27.23661664 3.53739291 -24 2 C-23.34 2 -22.68 2 -22 2 C-22 1.34 -22 0.68 -22 0 C-14.83171158 -1.91154358 -7.22751457 -1.25695906 0 0 Z " fill="#0B2741" transform="translate(267,454)"/>
<path d="M0 0 C0 0.66 0 1.32 0 2 C2.97 2.99 5.94 3.98 9 5 C8.67 6.65 8.34 8.3 8 10 C7.34 10 6.68 10 6 10 C5.34 11.98 4.68 13.96 4 16 C2.948125 15.525625 1.89625 15.05125 0.8125 14.5625 C-4.5001309 12.30543036 -9.19766365 11.67764798 -15 12 C-15.99 12.66 -16.98 13.32 -18 14 C-17.67 15.65 -17.34 17.3 -17 19 C-16.443125 19.18175781 -15.88625 19.36351562 -15.3125 19.55078125 C6.13623073 26.61581924 6.13623073 26.61581924 11 34 C11.90256263 39.67832707 11.57231041 45.22282557 9.8125 50.6875 C7.74006126 53.33164598 6.21380606 54.13140377 3 55 C3 55.66 3 56.32 3 57 C-2.20341462 58.71862128 -6.66367112 59.28557679 -12.125 59.1875 C-12.81464844 59.18685547 -13.50429688 59.18621094 -14.21484375 59.18554688 C-17.92743505 59.15360297 -21.39033053 58.87783791 -25 58 C-25 57.34 -25 56.68 -25 56 C-25.928125 55.71125 -26.85625 55.4225 -27.8125 55.125 C-31 54 -31 54 -34 52 C-33.46972205 47.4926374 -31.80388725 44.5460927 -29 41 C-28.01 41 -27.02 41 -26 41 C-25.67 41.66 -25.34 42.32 -25 43 C-18.38613639 46.21835327 -11.0319124 47.3439708 -4 45 C-4 43.02 -4 41.04 -4 39 C-5.32 38.34 -6.64 37.68 -8 37 C-8 36.34 -8 35.68 -8 35 C-9.27875 34.9175 -10.5575 34.835 -11.875 34.75 C-18.60853966 33.97468707 -25.49065052 32.23399421 -30.0625 26.9375 C-33.25738015 22.09364945 -33.82452025 17.67086708 -33 12 C-31.07440892 7.54033105 -28.37063713 3.31386672 -24 1 C-16.13431071 -1.98896193 -8.14750322 -1.41695708 0 0 Z " fill="#0E2943" transform="translate(318,454)"/>
<path d="M0 0 C0 0.66 0 1.32 0 2 C0.598125 2.2475 1.19625 2.495 1.8125 2.75 C4.33586869 4.19192497 5.50030076 5.52549626 7 8 C7 8.99 7 9.98 7 11 C7.66 11 8.32 11 9 11 C9.02707139 13.24993359 9.04642829 15.49996095 9.0625 17.75 C9.07410156 19.00296875 9.08570313 20.2559375 9.09765625 21.546875 C8.91499126 28.00590903 8.91499126 28.00590903 6.328125 30.81640625 C5.64234375 31.39261719 4.9565625 31.96882813 4.25 32.5625 C3.57453125 33.14128906 2.8990625 33.72007812 2.203125 34.31640625 C-2.66519667 38.03670171 -5.6992582 39.41564001 -11.9375 39.375 C-13.12214844 39.38273437 -14.30679687 39.39046875 -15.52734375 39.3984375 C-22.01926934 38.65358215 -25.80865861 35.76154505 -29.7421875 30.80859375 C-33.70054551 25.11691748 -33.6045457 18.68900567 -33 12 C-31.30806714 5.92894681 -28.2018765 2.36402344 -23 -1 C-14.66845889 -4.27310544 -8.0779211 -3.07730327 0 0 Z " fill="#0B2742" transform="translate(373,363)"/>
<path d="M0 0 C4.61326991 3.51009667 6.77302553 7.43142356 8 13 C8.85024721 20.11304375 8.38771921 26.15821105 4 32 C-1.24194167 37.45638474 -5.09941742 39.15653319 -12.75 39.3125 C-18.87173998 39.26201142 -22.23274552 38.83453078 -27 35 C-29.25 32.625 -29.25 32.625 -31 30 C-31.5775 29.154375 -32.155 28.30875 -32.75 27.4375 C-34.79227252 21.82125056 -35.12799778 15.64584995 -33.34375 9.87890625 C-30.34982551 4.08462997 -25.4747837 -0.02776355 -19.5 -2.375 C-12.36116439 -3.64979207 -6.55908026 -3.05761636 0 0 Z " fill="#0C2842" transform="translate(231,363)"/>
<path d="M0 0 C4.95 0 9.9 0 15 0 C15 26.07 15 52.14 15 79 C10.05 79 5.1 79 0 79 C0 52.93 0 26.86 0 0 Z " fill="#0B2742" transform="translate(148,433)"/>
<path d="M0 0 C5.0831064 1.84840233 8.63895462 6.22300121 11 11 C12.00512012 16.26743401 11.81295687 21.1601484 9.25 25.9375 C4.40540541 32.53153153 4.40540541 32.53153153 0 34 C-9.04843497 34.99433351 -9.04843497 34.99433351 -13.0546875 32.953125 C-14.6875 31.625 -14.6875 31.625 -17 29 C-17 28.34 -17 27.68 -17 27 C-17.66 27 -18.32 27 -19 27 C-21.03364244 20.77197004 -21.87446848 15.81773176 -19.875 9.375 C-15.2282004 1.01076072 -9.09940752 -0.74987194 0 0 Z " fill="#F4F6F7" transform="translate(454,466)"/>
<path d="M0 0 C6.6 0 13.2 0 20 0 C25.859375 10.25390625 25.859375 10.25390625 26.91992188 12.11767578 C27.65712148 13.40244273 28.40365345 14.68188845 29.15820312 15.95654297 C32 20.78935185 32 20.78935185 32 23 C32.66 23 33.32 23 34 23 C33.505 25.475 33.505 25.475 33 28 C28.62176083 28.04938149 24.24366854 28.0857104 19.86523438 28.10986328 C18.3752968 28.11993043 16.88537903 28.13358518 15.39550781 28.15087891 C13.25580972 28.17509653 11.11637247 28.18647564 8.9765625 28.1953125 C7.68830566 28.20578613 6.40004883 28.21625977 5.07275391 28.22705078 C2 28 2 28 0 26 C-0.22705078 23.38623047 -0.22705078 23.38623047 -0.1953125 20.1171875 C-0.18886719 18.95058594 -0.18242187 17.78398437 -0.17578125 16.58203125 C-0.15902344 15.35871094 -0.14226562 14.13539063 -0.125 12.875 C-0.11597656 11.64394531 -0.10695313 10.41289062 -0.09765625 9.14453125 C-0.07402633 6.09627194 -0.03815439 3.04811211 0 0 Z " fill="#F2F4F5" transform="translate(349,291)"/>
<path d="M0 0 C2.875 1.3125 2.875 1.3125 5 3 C5.80244141 3.61875 5.80244141 3.61875 6.62109375 4.25 C8.5853432 6.74287183 8.29780436 8.56220985 8.1875 11.6875 C8.16042969 12.68136719 8.13335937 13.67523438 8.10546875 14.69921875 C8.07066406 15.45847656 8.03585937 16.21773438 8 17 C7.34 17 6.68 17 6 17 C5.7525 17.78375 5.505 18.5675 5.25 19.375 C3.78713638 22.44701361 3.08459679 22.79465134 0 24 C-4.43684514 24.68259156 -7.93637461 24.60117957 -11.875 22.375 C-15.30961255 18.53631538 -17.32469089 15.23190125 -17.125 10 C-16.37161488 5.83233762 -14.43716944 3.58526993 -11.1015625 1.06640625 C-7.40963784 -0.80700533 -4.01073469 -0.76897545 0 0 Z " fill="#ED3831" transform="translate(269,247)"/>
<path d="M0 0 C0.99 0.33 1.98 0.66 3 1 C3 6.28 3 11.56 3 17 C4.60875 17.144375 6.2175 17.28875 7.875 17.4375 C12.75 17.875 12.75 17.875 15 19 C15 19.66 15 20.32 15 21 C16.32 21.33 17.64 21.66 19 22 C19.495 23.98 19.495 23.98 20 26 C14.2722863 25.25290691 8.65840766 24.16268651 3 23 C3 27.29 3 31.58 3 36 C0.525 36.495 0.525 36.495 -2 37 C-3 36 -3 36 -3.09765625 33.05859375 C-3.08605469 31.86363281 -3.07445312 30.66867188 -3.0625 29.4375 C-3.04896484 27.64119141 -3.04896484 27.64119141 -3.03515625 25.80859375 C-3.02355469 24.88175781 -3.01195312 23.95492187 -3 23 C-7.95 23.495 -7.95 23.495 -13 24 C-13.33 22.68 -13.66 21.36 -14 20 C-8.555 18.515 -8.555 18.515 -3 17 C-2.95101563 15.85660156 -2.90203125 14.71320313 -2.8515625 13.53515625 C-2.77654811 12.04424527 -2.70099972 10.55336108 -2.625 9.0625 C-2.5940625 8.30775391 -2.563125 7.55300781 -2.53125 6.77539062 C-2.4273685 4.84492605 -2.22104386 2.92057919 -2 1 C-1.34 0.67 -0.68 0.34 0 0 Z " fill="#E9362E" transform="translate(265,201)"/>
<path d="M0 0 C0.74121094 0.32097656 1.48242188 0.64195312 2.24609375 0.97265625 C8.43050995 4.04832848 11.96642022 7.78007023 15 14 C15.875 17.5625 15.875 17.5625 16 20 C15.34 20 14.68 20 14 20 C13.505 19.01 13.505 19.01 13 18 C12.34 18 11.68 18 11 18 C11 22.95 11 27.9 11 33 C10.34 33 9.68 33 9 33 C9.03480469 32.154375 9.06960937 31.30875 9.10546875 30.4375 C9.2701219 23.53774891 9.20379906 18.17875533 6 12 C3.95053601 10.14684743 3.95053601 10.14684743 2 9 C2 8.34 2 7.68 2 7 C-7.01492541 4.71049513 -14.33100945 4.12731076 -23 8 C-25.96425767 10.01600381 -25.96425767 10.01600381 -28 12 C-28 10.68 -28 9.36 -28 8 C-28.99 7.34 -29.98 6.68 -31 6 C-21.78680034 -1.43603424 -11.50569686 -5.3232526 0 0 Z " fill="#E7EBEE" transform="translate(229,356)"/>
<path d="M0 0 C0.59865471 5.98654709 0.59865471 5.98654709 -1.04296875 8.765625 C-2.83858185 10.93510476 -4.46143928 12.73071964 -7 14 C-9.1423215 14.14833651 -11.29024129 14.22127413 -13.4375 14.25 C-14.59121094 14.27578125 -15.74492187 14.3015625 -16.93359375 14.328125 C-20 14 -20 14 -21.921875 12.76953125 C-23.34755733 10.42955264 -23.18942475 9.12918615 -22.8125 6.4375 C-22.71582031 5.65246094 -22.61914062 4.86742187 -22.51953125 4.05859375 C-22 2 -22 2 -20 0 C-13.7633823 -2.11456137 -6.32375977 -1.33131785 0 0 Z " fill="#F0F3F5" transform="translate(210,487)"/>
<path d="M0 0 C1 3 1 3 -1 10 C-5.95 10 -10.9 10 -16 10 C-16 11.98 -16 13.96 -16 16 C-11.05 16 -6.1 16 -1 16 C0.3640674 20.77423589 1.25140271 24.07984981 1.5625 28.8125 C1.7556451 32.54892465 1.7556451 32.54892465 3 36 C2.67 36.66 2.34 37.32 2 38 C1.34 38 0.68 38 0 38 C0 37.34 0 36.68 0 36 C-0.66 36 -1.32 36 -2 36 C-2.33 34.68 -2.66 33.36 -3 32 C-3.66 32 -4.32 32 -5 32 C-6.19287411 28.12315913 -7 25.08378077 -7 21 C-7.75925781 21.04640625 -8.51851562 21.0928125 -9.30078125 21.140625 C-10.29464844 21.17671875 -11.28851563 21.2128125 -12.3125 21.25 C-13.29863281 21.29640625 -14.28476563 21.3428125 -15.30078125 21.390625 C-18 21 -18 21 -19.8359375 19.203125 C-21.51820769 16.01923109 -21.3165849 13.54575086 -21 10 C-20.34 8.68 -19.68 7.36 -19 6 C-15.04 6 -11.08 6 -7 6 C-7 6.33 -7 6.66 -7 7 C-11.455 7.495 -11.455 7.495 -16 8 C-9.07 8.495 -9.07 8.495 -2 9 C-1.855625 7.700625 -1.71125 6.40125 -1.5625 5.0625 C-1.125 1.125 -1.125 1.125 0 0 Z " fill="#FCFAF9" transform="translate(224,246)"/>
<path d="M0 0 C0.99 0.33 1.98 0.66 3 1 C4.06902939 3.30252483 5.07175817 5.6372026 6 8 C6.33 8.33 6.66 8.66 7 9 C7.87246421 15.53633023 6.60164707 20.51866121 3 26 C0.41423292 28.58576708 -1.43927733 28.49132533 -5 29 C-5.99 29.33 -6.98 29.66 -8 30 C-6.25 22.375 -6.25 22.375 -4 19 C-4.33 18.01 -4.66 17.02 -5 16 C-4.01 16 -3.02 16 -2 16 C-2 15.01 -2 14.02 -2 13 C-2.99 13.495 -2.99 13.495 -4 14 C-4.36256858 12.5437328 -4.71479793 11.08488815 -5.0625 9.625 C-5.35833984 8.40683594 -5.35833984 8.40683594 -5.66015625 7.1640625 C-6 5 -6 5 -5 3 C-2.625 1.3125 -2.625 1.3125 0 0 Z " fill="#03213E" transform="translate(232,369)"/>
<path d="M0 0 C6.45276947 1.07546158 9.52504804 3.21284209 14 8 C14.56074219 8.59039062 15.12148438 9.18078125 15.69921875 9.7890625 C22.82713087 17.55091041 26.75460779 24.31428472 27 35 C26.34 35 25.68 35 25 35 C24.505 31.535 24.505 31.535 24 28 C23.01 28.495 23.01 28.495 22 29 C22 30.98 22 32.96 22 35 C21.34 35 20.68 35 20 35 C19.85304688 34.23816406 19.70609375 33.47632813 19.5546875 32.69140625 C17.36957422 22.63235029 13.76661014 15.16622134 5.14453125 9.21484375 C-0.18683277 6.19470858 -5.95019112 4.77561652 -12 4 C-12 3.67 -12 3.34 -12 3 C-5.66606918 2.65451286 -0.89738492 3.70657253 5 6 C4.65479552 4.03506426 4.65479552 4.03506426 4 2 C2.0162233 0.71563266 2.0162233 0.71563266 0 0 Z " fill="#E7443F" transform="translate(280,221)"/>
<path d="M0 0 C3 2 3 2 4 5 C4.73075695 11.97029703 4.73075695 11.97029703 2.625 14.9375 C-0.7262432 17.12869748 -2.99691183 17.24018529 -7 17 C-10.7 15.6 -10.7 15.6 -12 13 C-12.203125 10.94140625 -12.203125 10.94140625 -12.25 8.5625 C-12.28867188 7.38880859 -12.28867188 7.38880859 -12.328125 6.19140625 C-11.92253081 3.48261649 -11.11466951 2.6783906 -9 1 C-5.98131566 -0.50934217 -3.32702771 -0.17510672 0 0 Z " fill="#F3F5F7" transform="translate(222,373)"/>
<path d="M0 0 C0.66 0.33 1.32 0.66 2 1 C1.01 1.33 0.02 1.66 -1 2 C-1 7.28 -1 12.56 -1 18 C-8.625 20.875 -8.625 20.875 -12 22 C-12 22.99 -12 23.98 -12 25 C-11.01 24.67 -10.02 24.34 -9 24 C-6.66700175 23.96045766 -4.33291811 23.95598268 -2 24 C-2 24.33 -2 24.66 -2 25 C-2.845625 25.15855469 -3.69125 25.31710938 -4.5625 25.48046875 C-16.32186534 27.89915639 -22.11113418 31.02552991 -29.04296875 40.890625 C-31.33420535 43.36022134 -32.70052382 43.70367399 -36 44 C-36.42651674 37.92213643 -33.6838764 34.59892922 -30 30 C-22.68580884 21.85718588 -13.37516301 19.34909351 -3 17 C-2.95101562 15.85660156 -2.90203125 14.71320313 -2.8515625 13.53515625 C-2.77654811 12.04424527 -2.70099972 10.55336108 -2.625 9.0625 C-2.5940625 8.30775391 -2.563125 7.55300781 -2.53125 6.77539062 C-2.4273685 4.84492605 -2.22104386 2.92057919 -2 1 C-1.34 0.67 -0.68 0.34 0 0 Z " fill="#E73A32" transform="translate(264,200)"/>
<path d="M0 0 C3.79037936 0.53198307 5.73280951 0.91998808 8.5625 3.5 C9.72615451 7.42733397 9.98785748 9.54294567 8.3125 13.3125 C6.5625 15.5 6.5625 15.5 3.5625 17.5 C0.38498425 17.83803359 -1.78088988 17.76619329 -4.75 16.5625 C-7.46229831 13.24746874 -7.73195455 9.70333869 -7.4375 5.5 C-5.46160718 1.46588549 -4.45888072 0.64856447 0 0 Z " fill="#F3F5F7" transform="translate(360.4375,372.5)"/>
<path d="M0 0 C1.65 0.33 3.3 0.66 5 1 C5 5.62 5 10.24 5 15 C7.31 15 9.62 15 12 15 C11.01 17.475 11.01 17.475 10 20 C8.35 20 6.7 20 5 20 C5 25.28 5 30.56 5 36 C3.35 36 1.7 36 0 36 C0.33 35.01 0.66 34.02 1 33 C1.06937062 30.77181559 1.08457084 28.54165476 1.0625 26.3125 C1.04896484 24.54326172 1.04896484 24.54326172 1.03515625 22.73828125 C1.02355469 21.83464844 1.01195312 20.93101562 1 20 C1.66 20 2.32 20 3 20 C2.67 19.34 2.34 18.68 2 18 C1.01 17.67 0.02 17.34 -1 17 C-1.02684679 14.35409986 -1.04676357 11.70846904 -1.0625 9.0625 C-1.07087891 8.30775391 -1.07925781 7.55300781 -1.08789062 6.77539062 C-1.09652441 4.85005687 -1.05224333 2.92464419 -1 1 C-0.67 0.67 -0.34 0.34 0 0 Z " fill="#F0342E" transform="translate(263,280)"/>
<path d="M0 0 C1.8671875 0.296875 1.8671875 0.296875 4 1 C8.28713027 7.55678748 9.10986151 14.31669934 10 22 C13.96 22 17.92 22 22 22 C23.17051429 24.34102859 23.1992246 25.89352953 23.25 28.5 C23.27578125 29.2940625 23.3015625 30.088125 23.328125 30.90625 C23.21984375 31.5971875 23.1115625 32.288125 23 33 C22.01 33.66 21.02 34.32 20 35 C20 31.37 20 27.74 20 24 C18.39318359 24.01740234 18.39318359 24.01740234 16.75390625 24.03515625 C15.35677257 24.04453299 13.95963701 24.05363331 12.5625 24.0625 C11.85544922 24.07087891 11.14839844 24.07925781 10.41992188 24.08789062 C8.61306441 24.09653588 6.80612397 24.05220011 5 24 C3.40255537 22.40255537 3.49481702 20.44295006 3.125 18.25 C2.36363566 14.18939019 1.1543177 11.52524715 -1 8 C-1.40677966 2.81355932 -1.40677966 2.81355932 0 0 Z " fill="#F4EFF0" transform="translate(302,231)"/>
<path d="M0 0 C4.29 0 8.58 0 13 0 C13 1.32 13 2.64 13 4 C9.04 4 5.08 4 1 4 C0.95875 5.216875 0.9175 6.43375 0.875 7.6875 C-0.26313636 17.70942296 -5.58400244 27.23775429 -13 34 C-13.33 34 -13.66 34 -14 34 C-13.91291331 32.54054712 -13.80473093 31.08234132 -13.6875 29.625 C-13.62949219 28.81289063 -13.57148438 28.00078125 -13.51171875 27.1640625 C-13 25 -13 25 -10 23 C-8.86454438 20.70465742 -8.86454438 20.70465742 -8 18 C-7.649375 17.030625 -7.29875 16.06125 -6.9375 15.0625 C-6.01381054 12.04511443 -5.4457807 9.12046493 -5 6 C-4.01 6.33 -3.02 6.66 -2 7 C-2 5.35 -2 3.7 -2 2 C-1.34 2 -0.68 2 0 2 C0 1.34 0 0.68 0 0 Z " fill="#E63D37" transform="translate(306,257)"/>
<path d="M0 0 C0.33 0 0.66 0 1 0 C1.29043292 7.2608231 -0.35144875 12.72449185 -4 19 C-4.99 19.33 -5.98 19.66 -7 20 C-6.979375 20.58007812 -6.95875 21.16015625 -6.9375 21.7578125 C-7.03486489 25.44550755 -7.14077373 28.04240437 -9.671875 30.86328125 C-15.69840384 35.42849012 -20.35690324 37.29972928 -28 37 C-27.34 36.01 -26.68 35.02 -26 34 C-27.98 33.67 -29.96 33.34 -32 33 C-29.3079465 31.57230421 -26.73863836 30.58147101 -23.8125 29.75 C-13.83344596 26.41274258 -6.9990579 20.28920295 -2 11 C-0.90875083 7.34137206 -0.29422006 3.80279421 0 0 Z " fill="#E44741" transform="translate(300,262)"/>
<path d="M0 0 C6.97049299 0.14830836 11.01340143 3.30275918 16 8 C18.91895759 11.3188148 20.47871703 14.56909473 21 19 C20.01 19.33 19.02 19.66 18 20 C17.67 23.63 17.34 27.26 17 31 C16.67 31 16.34 31 16 31 C16 27.04 16 23.08 16 19 C15.34 19 14.68 19 14 19 C13.5875 18.071875 13.175 17.14375 12.75 16.1875 C11.04014879 13.07312814 9.8388153 11.95780365 7 10 C7 9.34 7 8.68 7 8 C1.72 7.01 -3.56 6.02 -9 5 C-9 4.67 -9 4.34 -9 4 C-7.741875 3.979375 -6.48375 3.95875 -5.1875 3.9375 C-4.47980469 3.92589844 -3.77210938 3.91429687 -3.04296875 3.90234375 C-1 4 -1 4 2 5 C2.33 3.68 2.66 2.36 3 1 C2.01 0.67 1.02 0.34 0 0 Z " fill="#E0E5E9" transform="translate(366,355)"/>
<path d="M0 0 C3.07310344 0.68420039 4.20965132 1.95524711 6.0703125 4.4609375 C6.4609375 7.4765625 6.4609375 7.4765625 6.3203125 10.7109375 C6.28421875 11.78859375 6.248125 12.86625 6.2109375 13.9765625 C6.14132812 15.20632812 6.14132812 15.20632812 6.0703125 16.4609375 C5.7403125 16.4609375 5.4103125 16.4609375 5.0703125 16.4609375 C4.7403125 13.1609375 4.4103125 9.8609375 4.0703125 6.4609375 C3.7403125 11.0809375 3.4103125 15.7009375 3.0703125 20.4609375 C5.51171875 20.55859375 7.953125 20.65625 10.39453125 20.75390625 C13.0703125 21.4609375 13.0703125 21.4609375 18.0703125 26.4609375 C9.6553125 24.4809375 9.6553125 24.4809375 1.0703125 22.4609375 C0.7403125 17.1809375 0.4103125 11.9009375 0.0703125 6.4609375 C-1.5796875 6.1309375 -3.2296875 5.8009375 -4.9296875 5.4609375 C-4.9296875 10.7409375 -4.9296875 16.0209375 -4.9296875 21.4609375 C-5.2596875 21.4609375 -5.5896875 21.4609375 -5.9296875 21.4609375 C-5.9296875 15.5209375 -5.9296875 9.5809375 -5.9296875 3.4609375 C-6.5896875 3.1309375 -7.2496875 2.8009375 -7.9296875 2.4609375 C-5.36890985 -0.09984015 -3.50086147 0.14642386 0 0 Z " fill="#E7CECF" transform="translate(266.9296875,195.5390625)"/>
<path d="M0 0 C0.66 0.33 1.32 0.66 2 1 C1.6875 2.9375 1.6875 2.9375 1 5 C0.01 5.33 -0.98 5.66 -2 6 C-1.938125 6.969375 -1.87625 7.93875 -1.8125 8.9375 C-1.7834324 13.66583039 -3.37454472 17.59772528 -5 22 C-9.95 22 -14.9 22 -20 22 C-19.67 21.34 -19.34 20.68 -19 20 C-16.03 20 -13.06 20 -10 20 C-10.020625 18.9275 -10.04125 17.855 -10.0625 16.75 C-9.97560976 11.53658537 -9.97560976 11.53658537 -9 9 C-8.34 8.67 -7.68 8.34 -7 8 C-6.67 7.01 -6.34 6.02 -6 5 C-5.34 4.67 -4.68 4.34 -4 4 C-3.67 3.01 -3.34 2.02 -3 1 C-2.01 0.67 -1.02 0.34 0 0 Z " fill="#F6F5F5" transform="translate(227,233)"/>
<path d="M0 0 C1.66611905 -0.042721 3.33382885 -0.04063832 5 0 C6 1 6 1 6.09765625 4.37890625 C6.09098369 5.77347077 6.07902532 7.16801743 6.0625 8.5625 C6.05798828 9.27341797 6.05347656 9.98433594 6.04882812 10.71679688 C6.03700864 12.47790013 6.01907263 14.23896036 6 16 C7.98 16 9.96 16 12 16 C12 10.72 12 5.44 12 0 C13.65 0 15.3 0 17 0 C15.68 0.33 14.36 0.66 13 1 C13.33 6.28 13.66 11.56 14 17 C15.14814997 14.70370006 15.30769809 12.92301914 15.5625 10.375 C15.64628906 9.55773437 15.73007812 8.74046875 15.81640625 7.8984375 C15.87699219 7.27195312 15.93757813 6.64546875 16 6 C16.33 6 16.66 6 17 6 C17.61442979 15.89914663 17.61442979 15.89914663 15.5 19.6875 C11.72351506 21.67015459 9.2519518 21.47243909 5 21 C3.203125 19.984375 3.203125 19.984375 2 18 C2.10859133 15.15021129 2.35642416 12.60504992 2.8125 9.8125 C2.92142578 9.06291016 3.03035156 8.31332031 3.14257812 7.54101562 C3.41348723 5.69176651 3.70480057 3.84552739 4 2 C2.68 1.67 1.36 1.34 0 1 C0 0.67 0 0.34 0 0 Z " fill="#F5D0D0" transform="translate(256,300)"/>
<path d="M0 0 C1 3 1 3 -1 10 C-5.95 10 -10.9 10 -16 10 C-16 12.97 -16 15.94 -16 19 C-14.93458984 19.09087891 -14.93458984 19.09087891 -13.84765625 19.18359375 C-12.92855469 19.26738281 -12.00945312 19.35117187 -11.0625 19.4375 C-9.68771484 19.55931641 -9.68771484 19.55931641 -8.28515625 19.68359375 C-6 20 -6 20 -5 21 C-4.76636119 22.84891946 -4.58696365 24.70488031 -4.4375 26.5625 C-4.31181641 28.08037109 -4.31181641 28.08037109 -4.18359375 29.62890625 C-4.12300781 30.41136719 -4.06242187 31.19382812 -4 32 C-6.56616632 28.15075052 -6.55097676 25.5650696 -7 21 C-7.75925781 21.04640625 -8.51851562 21.0928125 -9.30078125 21.140625 C-10.29464844 21.17671875 -11.28851563 21.2128125 -12.3125 21.25 C-13.29863281 21.29640625 -14.28476563 21.3428125 -15.30078125 21.390625 C-18 21 -18 21 -19.8359375 19.203125 C-21.51820769 16.01923109 -21.3165849 13.54575086 -21 10 C-20.34 8.68 -19.68 7.36 -19 6 C-15.04 6 -11.08 6 -7 6 C-7 6.33 -7 6.66 -7 7 C-11.455 7.495 -11.455 7.495 -16 8 C-9.07 8.495 -9.07 8.495 -2 9 C-1.855625 7.700625 -1.71125 6.40125 -1.5625 5.0625 C-1.125 1.125 -1.125 1.125 0 0 Z " fill="#D4CACF" transform="translate(224,246)"/>
<path d="M0 0 C0.66 0.33 1.32 0.66 2 1 C1.01 1.33 0.02 1.66 -1 2 C-1 7.28 -1 12.56 -1 18 C-8.625 20.875 -8.625 20.875 -12 22 C-12 22.99 -12 23.98 -12 25 C-11.01 24.67 -10.02 24.34 -9 24 C-6.66700175 23.96045766 -4.33291811 23.95598268 -2 24 C-2 24.33 -2 24.66 -2 25 C-4.04111542 25.48150942 -6.08291932 25.96010083 -8.125 26.4375 C-9.26195312 26.70433594 -10.39890625 26.97117188 -11.5703125 27.24609375 C-14.70461304 27.9350687 -17.83017726 28.50381194 -21 29 C-21 28.34 -21 27.68 -21 27 C-22.32 26.34 -23.64 25.68 -25 25 C-17.98443476 21.07128347 -10.73279308 19.04180492 -3 17 C-2.95101563 15.85660156 -2.90203125 14.71320313 -2.8515625 13.53515625 C-2.77654811 12.04424527 -2.70099972 10.55336108 -2.625 9.0625 C-2.5940625 8.30775391 -2.563125 7.55300781 -2.53125 6.77539062 C-2.4273685 4.84492605 -2.22104386 2.92057919 -2 1 C-1.34 0.67 -0.68 0.34 0 0 Z " fill="#E75049" transform="translate(264,200)"/>
<path d="M0 0 C0 0.66 0 1.32 0 2 C1.36125 1.690625 1.36125 1.690625 2.75 1.375 C6 1 6 1 10 3 C10 6.96 10 10.92 10 15 C9.34 15.33 8.68 15.66 8 16 C8 13.03 8 10.06 8 7 C6.989375 7.061875 5.97875 7.12375 4.9375 7.1875 C-0.12753058 6.94630807 -4.07523533 5.67640794 -7.9375 2.3125 C-8.4634375 1.6628125 -8.4634375 1.6628125 -9 1 C-5.57367167 -0.61798838 -3.61944899 -1.34053666 0 0 Z " fill="#F8F8F9" transform="translate(250,299)"/>
<path d="M0 0 C1.32 0.66 2.64 1.32 4 2 C3.67 2.66 3.34 3.32 3 4 C1.68 4 0.36 4 -1 4 C-1 4.66 -1 5.32 -1 6 C-3.64 6.33 -6.28 6.66 -9 7 C-8.97679687 7.61488281 -8.95359375 8.22976563 -8.9296875 8.86328125 C-8.91164063 9.67152344 -8.89359375 10.47976563 -8.875 11.3125 C-8.85179687 12.11300781 -8.82859375 12.91351563 -8.8046875 13.73828125 C-9 16 -9 16 -11 19 C-12 18 -12 18 -12.09765625 14.40234375 C-12.0909822 12.91403133 -12.07902183 11.42573568 -12.0625 9.9375 C-12.05798828 9.17888672 -12.05347656 8.42027344 -12.04882812 7.63867188 C-12.0370068 5.75908129 -12.01907078 3.87953101 -12 2 C-11.21753906 1.93941406 -10.43507813 1.87882812 -9.62890625 1.81640625 C-8.61699219 1.73261719 -7.60507812 1.64882813 -6.5625 1.5625 C-5.55316406 1.48128906 -4.54382813 1.40007812 -3.50390625 1.31640625 C-1.06359221 1.26788532 -1.06359221 1.26788532 0 0 Z " fill="#FAF7F8" transform="translate(281,299)"/>
<path d="M0 0 C3.96 0 7.92 0 12 0 C12 1.98 12 3.96 12 6 C9.29816945 7.35091528 6.88191794 7.33858058 3.875 7.5625 C2.77929688 7.64628906 1.68359375 7.73007812 0.5546875 7.81640625 C-0.28835937 7.87699219 -1.13140625 7.93757813 -2 8 C-2 6.68 -2 5.36 -2 4 C-1.34 4 -0.68 4 0 4 C0 2.68 0 1.36 0 0 Z " fill="#E84E46" transform="translate(230,256)"/>
<path d="M0 0 C0.66 0.33 1.32 0.66 2 1 C2.4140625 3.06640625 2.4140625 3.06640625 2.625 5.5625 C2.69976562 6.38878906 2.77453125 7.21507812 2.8515625 8.06640625 C2.90054688 8.70449219 2.94953125 9.34257812 3 10 C2.34 10 1.68 10 1 10 C1.66 14.95 2.32 19.9 3 25 C2.34 24.67 1.68 24.34 1 24 C1 23.34 1 22.68 1 22 C0.34 21.67 -0.32 21.34 -1 21 C-2.62595281 14.4391378 -3.79975367 7.5990968 -2 1 C-1.34 0.67 -0.68 0.34 0 0 Z " fill="#EF352D" transform="translate(227,250)"/>
<path d="M0 0 C2.49505962 2.49505962 2.35948376 3.67328888 2.625 7.125 C2.69976562 8.03507813 2.77453125 8.94515625 2.8515625 9.8828125 C2.92503906 10.93082031 2.92503906 10.93082031 3 12 C3.59167969 12.0515625 4.18335938 12.103125 4.79296875 12.15625 C11.17025811 13.07174994 11.17025811 13.07174994 13.7109375 15.9140625 C14.92767242 17.9044439 16.02056009 19.8836223 17 22 C14.08482708 20.92598892 12.22189824 20.22189824 10 18 C7.57284794 17.32059533 7.57284794 17.32059533 4.875 16.875 C3.26625 16.58625 1.6575 16.2975 0 16 C0 10.72 0 5.44 0 0 Z " fill="#F2F2F6" transform="translate(270,200)"/>
<path d="M0 0 C0 0.66 0 1.32 0 2 C0.70125 2.061875 1.4025 2.12375 2.125 2.1875 C6.0332733 3.29201202 8.00357248 5.28230992 11 8 C10.67 8.66 10.34 9.32 10 10 C8.68 9.34 7.36 8.68 6 8 C6 7.34 6 6.68 6 6 C3.36 5.67 0.72 5.34 -2 5 C-2 3.68 -2 2.36 -2 1 C-9.92 1.33 -17.84 1.66 -26 2 C-20.52157469 -3.47842531 -6.96474576 -1.60724902 0 0 Z " fill="#3F5163" transform="translate(210,454)"/>
<path d="M0 0 C4.95 0 9.9 0 15 0 C15 3.63 15 7.26 15 11 C8.07 10.505 8.07 10.505 1 10 C0.71125 11.093125 0.4225 12.18625 0.125 13.3125 C-1 17 -1 17 -3 20 C-2.7834375 18.9790625 -2.7834375 18.9790625 -2.5625 17.9375 C-2.13799718 15.72065192 -1.79831018 13.48732633 -1.5 11.25 C-1 8 -1 8 0 7 C2.35313555 6.92728259 4.70833668 6.91629132 7.0625 6.9375 C8.35285156 6.94652344 9.64320313 6.95554687 10.97265625 6.96484375 C11.97167969 6.97644531 12.97070312 6.98804688 14 7 C14 5.02 14 3.04 14 1 C9.38 1 4.76 1 0 1 C0 0.67 0 0.34 0 0 Z " fill="#FBD3CF" transform="translate(307,255)"/>
<path d="M0 0 C9.9 0 19.8 0 30 0 C30 0.66 30 1.32 30 2 C21.42 2 12.84 2 4 2 C3.34 4.97 2.68 7.94 2 11 C6.95 11 11.9 11 17 11 C17 11.33 17 11.66 17 12 C11.39 12 5.78 12 0 12 C0 8.04 0 4.08 0 0 Z " fill="#0E1E2E" transform="translate(106,469)"/>
<path d="M0 0 C1 3 1 3 0.375 5 C-1.37571555 7.54649534 -3.33068838 8.47467907 -6 10 C-6.70125 10.721875 -7.4025 11.44375 -8.125 12.1875 C-10 14 -10 14 -13 14 C-13.0825 14.598125 -13.165 15.19625 -13.25 15.8125 C-14.20455872 18.5966296 -15.57132271 19.43311142 -18 21 C-18.66 20.67 -19.32 20.34 -20 20 C-18.61087093 18.2446735 -17.21338227 16.49596093 -15.8125 14.75 C-15.03519531 13.77546875 -14.25789062 12.8009375 -13.45703125 11.796875 C-11.13133403 9.14949947 -8.87514875 7.02951677 -6 5 C-5.34 5 -4.68 5 -4 5 C-3.67 4.01 -3.34 3.02 -3 2 C-2.01 1.34 -1.02 0.68 0 0 Z " fill="#22364A" transform="translate(230,152)"/>
<path d="M0 0 C1.65 0.33 3.3 0.66 5 1 C5 5.29 5 9.58 5 14 C4.67 13.01 4.34 12.02 4 11 C0.9254644 11.7763932 0.9254644 11.7763932 -1 14 C-1.02685938 11.85423363 -1.04633088 9.70837355 -1.0625 7.5625 C-1.07410156 6.36753906 -1.08570313 5.17257812 -1.09765625 3.94140625 C-1 1 -1 1 0 0 Z " fill="#E3342A" transform="translate(263,280)"/>
<path d="M0 0 C0.33 0 0.66 0 1 0 C1.29043292 7.2608231 -0.35144875 12.72449185 -4 19 C-4.99 19.33 -5.98 19.66 -7 20 C-7.33 22.97 -7.66 25.94 -8 29 C-8.33 28.01 -8.66 27.02 -9 26 C-13.95 27.485 -13.95 27.485 -19 29 C-18 27 -18 27 -15 25.625 C-8.39986384 21.94914777 -3.22554085 14.89816262 -0.984375 7.76953125 C-0.51315919 5.16774684 -0.16096616 2.63776801 0 0 Z " fill="#E15751" transform="translate(300,262)"/>
<path d="M0 0 C0.66 0.33 1.32 0.66 2 1 C0.67734741 4.96795776 -1.90186749 6.55090623 -5.24609375 8.75390625 C-8.41011568 11.00184165 -10.25439535 13.07061684 -11.6875 16.6875 C-12.120625 17.780625 -12.55375 18.87375 -13 20 C-13.66 20 -14.32 20 -15 20 C-15.33 20.66 -15.66 21.32 -16 22 C-14.12955883 13.25814862 -8.62592824 6.73369508 -2 1 C-1.34 0.67 -0.68 0.34 0 0 Z " fill="#22374A" transform="translate(355,439)"/>
<path d="M0 0 C0.99 0.33 1.98 0.66 3 1 C3 1.66 3 2.32 3 3 C5.475 3.99 5.475 3.99 8 5 C6.63589551 10.59282842 3.84616474 13.91193811 0 18 C-0.99 17.67 -1.98 17.34 -3 17 C-2.34 14.69 -1.68 12.38 -1 10 C0.32 10.33 1.64 10.66 3 11 C3 10.01 3 9.02 3 8 C3.66 8 4.32 8 5 8 C4.67 7.01 4.34 6.02 4 5 C3.01 4.67 2.02 4.34 1 4 C0.3125 1.9375 0.3125 1.9375 0 0 Z " fill="#162E44" transform="translate(399,438)"/>
<path d="M0 0 C4.29 0 8.58 0 13 0 C13 1.32 13 2.64 13 4 C9.04 4 5.08 4 1 4 C1 4.66 1 5.32 1 6 C0.34 6 -0.32 6 -1 6 C-1.33 4.68 -1.66 3.36 -2 2 C-1.34 2 -0.68 2 0 2 C0 1.34 0 0.68 0 0 Z " fill="#F13932" transform="translate(306,257)"/>
<path d="M0 0 C4.73509934 3.3995585 4.73509934 3.3995585 5.9375 6.125 C5.958125 6.74375 5.97875 7.3625 6 8 C5.34 8.66 4.68 9.32 4 10 C2.68 10 1.36 10 0 10 C-1.484375 8.25 -1.484375 8.25 -2.75 6 C-3.17796875 5.2575 -3.6059375 4.515 -4.046875 3.75 C-4.36140625 3.1725 -4.6759375 2.595 -5 2 C-3.68 2.33 -2.36 2.66 -1 3 C-0.67 2.01 -0.34 1.02 0 0 Z " fill="#E23E38" transform="translate(295,231)"/>
<path d="M0 0 C0.99 0.66 1.98 1.32 3 2 C0.37684968 3.31157516 -1.23033436 2.89649988 -4.125 2.5625 C-5.03507812 2.46066406 -5.94515625 2.35882813 -6.8828125 2.25390625 C-7.58148438 2.17011719 -8.28015625 2.08632812 -9 2 C-9 2.66 -9 3.32 -9 4 C-9.99 4 -10.98 4 -12 4 C-12 4.99 -12 5.98 -12 7 C-12.66 7 -13.32 7 -14 7 C-14 8.32 -14 9.64 -14 11 C-14.66 11 -15.32 11 -16 11 C-16.33 11.99 -16.66 12.98 -17 14 C-16.88381173 7.26108062 -16.88381173 7.26108062 -14.69140625 4.1328125 C-10.28219032 -0.12365923 -6.01577366 -1.21248151 0 0 Z " fill="#DD4944" transform="translate(269,247)"/>
<path d="M0 0 C0.99 0 1.98 0 3 0 C3 0.66 3 1.32 3 2 C5.475 2.99 5.475 2.99 8 4 C8 4.33 8 4.66 8 5 C6.01432292 5.22786458 4.02864583 5.45572917 2.04296875 5.68359375 C-0.19396393 5.97170735 -0.19396393 5.97170735 -3 7 C-2.2236068 10.0745356 -2.2236068 10.0745356 0 12 C-0.99 12.495 -0.99 12.495 -2 13 C-2.99 12.34 -3.98 11.68 -5 11 C-4.46972205 6.4926374 -2.80388725 3.5460927 0 0 Z " fill="#28394C" transform="translate(237,495)"/>
<path d="M0 0 C0.21776233 3.19384754 0.28983481 5.40422845 -1.125 8.3125 C-3.62320828 10.56088745 -5.70948807 10.70751005 -9 11 C-9 11.66 -9 12.32 -9 13 C-10.32 12.67 -11.64 12.34 -13 12 C-12.67 11.34 -12.34 10.68 -12 10 C-12.99 9.67 -13.98 9.34 -15 9 C-9.06 8.505 -9.06 8.505 -3 8 C-3.33 6.02 -3.66 4.04 -4 2 C-1 0 -1 0 0 0 Z " fill="#EF362F" transform="translate(305,248)"/>
<path d="M0 0 C0.5775 0.226875 1.155 0.45375 1.75 0.6875 C1.75 1.3475 1.75 2.0075 1.75 2.6875 C2.41 3.0175 3.07 3.3475 3.75 3.6875 C1.44 5.3375 -0.87 6.9875 -3.25 8.6875 C-3.58 7.6975 -3.91 6.7075 -4.25 5.6875 C-3.92 5.0275 -3.59 4.3675 -3.25 3.6875 C-4.013125 4.5125 -4.77625 5.3375 -5.5625 6.1875 C-8.25 8.6875 -8.25 8.6875 -11.25 8.6875 C-3.87 -0.5375 -3.87 -0.5375 0 0 Z " fill="#E3433E" transform="translate(241.25,226.3125)"/>
<path d="M0 0 C3.31562557 0.55260426 6.15062207 1.16825705 9 3 C9.33 3.99 9.66 4.98 10 6 C9.01 5.67 8.02 5.34 7 5 C7 5.99 7 6.98 7 8 C6.67 8.66 6.34 9.32 6 10 C5.45472656 9.73445312 4.90945313 9.46890625 4.34765625 9.1953125 C-1.02593372 6.67845156 -6.16295654 5.04873594 -12 4 C-12 3.67 -12 3.34 -12 3 C-5.66606918 2.65451286 -0.89738492 3.70657253 5 6 C4.65479552 4.03506426 4.65479552 4.03506426 4 2 C2.0162233 0.71563266 2.0162233 0.71563266 0 0 Z " fill="#E15651" transform="translate(280,221)"/>
<path d="M0 0 C5.625 -0.25 5.625 -0.25 9 2 C12.20379124 2.24246783 12.20379124 2.24246783 15.6875 2.125 C16.86699219 2.10695313 18.04648437 2.08890625 19.26171875 2.0703125 C20.16535156 2.04710937 21.06898438 2.02390625 22 2 C22.33 1.34 22.66 0.68 23 0 C24.32 0.66 25.64 1.32 27 2 C18.74366881 5.07212323 9.18822986 5.4147684 1 2 C0.67 1.34 0.34 0.68 0 0 Z " fill="#3A4B5B" transform="translate(435,509)"/>
<path d="M0 0 C0.928125 0.2784375 0.928125 0.2784375 1.875 0.5625 C4.04160178 1.23686176 4.04160178 1.23686176 6 0 C6 4 6 4 4.25 5.921875 C3.5075 6.52515625 2.765 7.1284375 2 7.75 C1.2575 8.36359375 0.515 8.9771875 -0.25 9.609375 C-1.11625 10.29773438 -1.11625 10.29773438 -2 11 C-3.53271273 6.41201223 -2.02911182 4.22055258 0 0 Z " fill="#1B324B" transform="translate(375,388)"/>
<path d="M0 0 C0 0.66 0 1.32 0 2 C-1.32 2 -2.64 2 -4 2 C-4.33 2.66 -4.66 3.32 -5 4 C-5.61875 4.103125 -6.2375 4.20625 -6.875 4.3125 C-9.95535691 5.30908606 -10.45373434 7.22960736 -12 10 C-13.29579647 11.36984198 -14.61992749 12.7151049 -16 14 C-17 12 -17 12 -16.4375 9.6875 C-13.78269342 4.72416595 -10.40911209 2.49318923 -5.25 0.6875 C-2 0 -2 0 0 0 Z " fill="#25394C" transform="translate(359,360)"/>
<path d="M0 0 C-0.33 0.66 -0.66 1.32 -1 2 C-5.875 1.125 -5.875 1.125 -7 0 C-8.84891946 -0.23363881 -10.70488031 -0.41303635 -12.5625 -0.5625 C-13.57441406 -0.64628906 -14.58632812 -0.73007812 -15.62890625 -0.81640625 C-16.80259766 -0.90728516 -16.80259766 -0.90728516 -18 -1 C-18.33 -0.34 -18.66 0.32 -19 1 C-21.32156597 1.40729228 -23.6568787 1.74438677 -26 2 C-19.6782779 -6.18105213 -8.14487537 -3.10280967 0 0 Z " fill="#405161" transform="translate(231,363)"/>
<path d="M0 0 C-0.33 1.65 -0.66 3.3 -1 5 C-3.31 5 -5.62 5 -8 5 C-8 5.66 -8 6.32 -8 7 C-9.98 6.34 -11.96 5.68 -14 5 C-11.67684302 2.67684302 -10.12738825 2.27503325 -7 1.375 C-6.113125 1.11460937 -5.22625 0.85421875 -4.3125 0.5859375 C-2 0 -2 0 0 0 Z " fill="#E83B33" transform="translate(291,288)"/>
<path d="M0 0 C3.08751337 2.40617344 3.93556027 3.59825161 4.56640625 7.53125 C4.56511719 8.8409375 4.56382812 10.150625 4.5625 11.5 C4.58441406 12.8096875 4.60632813 14.119375 4.62890625 15.46875 C4 19 4 19 1.46484375 21.46875 C0.65144531 21.9740625 -0.16195313 22.479375 -1 23 C-0.67 21.35 -0.34 19.7 0 18 C0.33 18 0.66 18 1 18 C1.02698422 15.56242587 1.04683099 13.12515085 1.0625 10.6875 C1.07087891 9.99720703 1.07925781 9.30691406 1.08789062 8.59570312 C1.10307906 5.4516975 1.00193327 3.00579981 0 0 Z " fill="#465566" transform="translate(289,51)"/>
<path d="M0 0 C2.31 0 4.62 0 7 0 C6.34 1.65 5.68 3.3 5 5 C3.35 5 1.7 5 0 5 C0 10.28 0 15.56 0 21 C-0.33 21 -0.66 21 -1 21 C-1.0269501 18.06243881 -1.04681474 15.12512445 -1.0625 12.1875 C-1.07087891 11.35412109 -1.07925781 10.52074219 -1.08789062 9.66210938 C-1.09111328 8.85966797 -1.09433594 8.05722656 -1.09765625 7.23046875 C-1.10289307 6.49207764 -1.10812988 5.75368652 -1.11352539 4.99291992 C-1 3 -1 3 0 0 Z " fill="#DF352D" transform="translate(268,295)"/>
<path d="M0 0 C1.65322266 0.01740234 1.65322266 0.01740234 3.33984375 0.03515625 C4.99693359 0.04869141 4.99693359 0.04869141 6.6875 0.0625 C7.54214844 0.07410156 8.39679688 0.08570313 9.27734375 0.09765625 C9.27734375 0.42765625 9.27734375 0.75765625 9.27734375 1.09765625 C6.96734375 1.42765625 4.65734375 1.75765625 2.27734375 2.09765625 C2.27734375 2.75765625 2.27734375 3.41765625 2.27734375 4.09765625 C4.58734375 4.42765625 6.89734375 4.75765625 9.27734375 5.09765625 C9.27734375 5.42765625 9.27734375 5.75765625 9.27734375 6.09765625 C4.98734375 6.09765625 0.69734375 6.09765625 -3.72265625 6.09765625 C-3.72265625 0.13352426 -3.72265625 0.13352426 0 0 Z " fill="#DA4640" transform="translate(290.72265625,255.90234375)"/>
<path d="M0 0 C4.29 0 8.58 0 13 0 C13 0.66 13 1.32 13 2 C8.50343896 4.24828052 4.92127034 4.16682272 0 4 C0 2.68 0 1.36 0 0 Z " fill="#F33731" transform="translate(209,257)"/>
<path d="M0 0 C0.33 4.29 0.66 8.58 1 13 C0.34 13 -0.32 13 -1 13 C-2.20272819 10.59454362 -2.10071472 9.05003047 -2.0625 6.375 C-2.05347656 5.55773437 -2.04445313 4.74046875 -2.03515625 3.8984375 C-2.02355469 3.27195313 -2.01195312 2.64546875 -2 2 C-2.90492188 2.23396484 -2.90492188 2.23396484 -3.828125 2.47265625 C-4.62734375 2.66730469 -5.4265625 2.86195313 -6.25 3.0625 C-7.03890625 3.25972656 -7.8278125 3.45695313 -8.640625 3.66015625 C-11.10394822 4.01497267 -12.65604132 3.76877544 -15 3 C-13.6293189 2.48827906 -12.25315925 1.99122508 -10.875 1.5 C-9.72644531 1.08234375 -9.72644531 1.08234375 -8.5546875 0.65625 C-6 0 -6 0 0 0 Z " fill="#FED9D4" transform="translate(262,225)"/>
<path d="M0 0 C6.6 0.33 13.2 0.66 20 1 C20 1.66 20 2.32 20 3 C13.4 3 6.8 3 0 3 C0 2.01 0 1.02 0 0 Z " fill="#2D4051" transform="translate(171,374)"/>
<path d="M0 0 C0.6328125 1.84375 0.6328125 1.84375 1 4 C-1.125 6.5 -1.125 6.5 -4 9 C-4.845625 9.78375 -5.69125 10.5675 -6.5625 11.375 C-9 13 -9 13 -11.15234375 12.6015625 C-11.76207031 12.40304687 -12.37179687 12.20453125 -13 12 C-11.96875 11.319375 -10.9375 10.63875 -9.875 9.9375 C-5.92026817 7.13455361 -2.98331097 3.79197401 0 0 Z " fill="#FCD2CC" transform="translate(300,282)"/>
<path d="M0 0 C2.4375 0.75 2.4375 0.75 5 2 C6.7468673 5.4937346 6.12073432 10.19686879 6 14 C5.67 14.99 5.34 15.98 5 17 C4.34 17 3.68 17 3 17 C2.67 17.99 2.34 18.98 2 20 C1.34 19.67 0.68 19.34 0 19 C0.66 17.68 1.32 16.36 2 15 C2.66 15 3.32 15 4 15 C3.91245449 13.24908981 3.80426627 11.49920449 3.6875 9.75 C3.62949219 8.77546875 3.57148438 7.8009375 3.51171875 6.796875 C2.95363476 3.74658389 2.03630224 2.29288724 0 0 Z " fill="#FCD6D5" transform="translate(273,249)"/>
<path d="M0 0 C2.97 0.33 5.94 0.66 9 1 C9 1.33 9 1.66 9 2 C7.02 2 5.04 2 3 2 C2.67 5.63 2.34 9.26 2 13 C1.01 12.67 0.02 12.34 -1 12 C-0.67 8.04 -0.34 4.08 0 0 Z " fill="#FDD6D2" transform="translate(268,225)"/>
<path d="M0 0 C0.66 0 1.32 0 2 0 C2 5.94 2 11.88 2 18 C1.01 17.67 0.02 17.34 -1 17 C-0.34 17 0.32 17 1 17 C1 15.02 1 13.04 1 11 C0.34 11 -0.32 11 -1 11 C-1.02688151 9.35425434 -1.04634123 7.70838587 -1.0625 6.0625 C-1.07410156 5.14597656 -1.08570313 4.22945312 -1.09765625 3.28515625 C-1 1 -1 1 0 0 Z " fill="#FAF5F6" transform="translate(259,199)"/>
<path d="M0 0 C0.66 0.33 1.32 0.66 2 1 C2.3125 3.75 2.3125 3.75 2 7 C-0.5 9.375 -0.5 9.375 -3 11 C-3 9.68 -3 8.36 -3 7 C-3.99 6.34 -4.98 5.68 -6 5 C-4.02 3.35 -2.04 1.7 0 0 Z " fill="#E0E5EA" transform="translate(204,357)"/>
<path d="M0 0 C0.66 0.99 1.32 1.98 2 3 C2.99 2.67 3.98 2.34 5 2 C6.49341969 4.98683937 5.40648676 6.95160978 4.5625 10.125 C4.27503906 11.22070312 3.98757812 12.31640625 3.69140625 13.4453125 C3.34916016 14.70988281 3.34916016 14.70988281 3 16 C2.67 16 2.34 16 2 16 C1.96261719 15.30132812 1.92523438 14.60265625 1.88671875 13.8828125 C1.82097656 12.97273437 1.75523437 12.06265625 1.6875 11.125 C1.62949219 10.22007812 1.57148438 9.31515625 1.51171875 8.3828125 C1.2117961 5.63778399 1.2117961 5.63778399 -2 4 C-1.34 2.68 -0.68 1.36 0 0 Z " fill="#E6514B" transform="translate(227,240)"/>
<path d="M0 0 C3.48670834 1.1094072 6.77484237 2.26337666 10 4 C9.34 5.32 8.68 6.64 8 8 C4.82461668 7.65978036 3.97723135 6.97533396 1.75 4.5625 C0 2 0 2 0 0 Z " fill="#E0E3E7" transform="translate(282,214)"/>
<path d="M0 0 C0.33 0 0.66 0 1 0 C1.54829318 10.45818473 1.54829318 10.45818473 -2 15 C-2.33 15.66 -2.66 16.32 -3 17 C-6.0625 17.625 -6.0625 17.625 -9 18 C-8.071875 17.071875 -7.14375 16.14375 -6.1875 15.1875 C-2.27632235 10.69380653 -1.18123891 5.73004488 0 0 Z " fill="#354757" transform="translate(240,134)"/>
<path d="M0 0 C0.99 0 1.98 0 3 0 C2.84152588 0.86963379 2.68305176 1.73926758 2.51977539 2.63525391 C2.04102247 5.73444262 1.80141577 8.70523819 1.68359375 11.8359375 C1.64169922 12.89941406 1.59980469 13.96289062 1.55664062 15.05859375 C1.51732422 16.15300781 1.47800781 17.24742188 1.4375 18.375 C1.39431641 19.49261719 1.35113281 20.61023438 1.30664062 21.76171875 C1.20102589 24.50770199 1.0989203 27.25376881 1 30 C0.67 30 0.34 30 0 30 C-0.33 21.09 -0.66 12.18 -1 3 C-0.34 3 0.32 3 1 3 C0.67 2.01 0.34 1.02 0 0 Z " fill="#051D35" transform="translate(284,73)"/>
<path d="M0 0 C0 0.33 0 0.66 0 1 C-6.27 1 -12.54 1 -19 1 C-19 1.66 -19 2.32 -19 3 C-19.99 2.67 -20.98 2.34 -22 2 C-22 1.34 -22 0.68 -22 0 C-14.83171158 -1.91154358 -7.22751457 -1.25695906 0 0 Z " fill="#50606E" transform="translate(267,454)"/>
<path d="M0 0 C3.125 0.6875 3.125 0.6875 4.625 2.48046875 C5.89012435 4.5111371 7.04766847 6.55190476 8.125 8.6875 C5.20982708 7.61348892 3.34689824 6.90939824 1.125 4.6875 C-1.19775177 4.28702556 -3.53239357 3.9477896 -5.875 3.6875 C-4.06466833 1.27372443 -2.97904591 0.71238054 0 0 Z " fill="#FAFBFA" transform="translate(278.875,213.3125)"/>
<path d="M0 0 C0.33 0.66 0.66 1.32 1 2 C0.34 2 -0.32 2 -1 2 C-1 2.66 -1 3.32 -1 4 C-4.08225674 7.34645017 -7.40147125 10.2239921 -11 13 C-11.66 12.67 -12.32 12.34 -13 12 C-12.04882866 10.8274869 -11.08882991 9.66212985 -10.125 8.5 C-9.32449219 7.52546875 -9.32449219 7.52546875 -8.5078125 6.53125 C-8.01023437 6.0259375 -7.51265625 5.520625 -7 5 C-6.34 5 -5.68 5 -5 5 C-5 4.34 -5 3.68 -5 3 C-2.5 1.375 -2.5 1.375 0 0 Z " fill="#344656" transform="translate(84,438)"/>
<path d="M0 0 C0.66 0 1.32 0 2 0 C2 0.66 2 1.32 2 2 C3.32 2 4.64 2 6 2 C7.0625 3.875 7.0625 3.875 8 6 C7.67 6.66 7.34 7.32 7 8 C4.69 7.34 2.38 6.68 0 6 C0 4.02 0 2.04 0 0 Z " fill="#E83B31" transform="translate(231,278)"/>
<path d="M0 0 C0.33 0.99 0.66 1.98 1 3 C0.34 3 -0.32 3 -1 3 C-1.33 3.66 -1.66 4.32 -2 5 C-4.88395737 6.44197868 -7.82430479 6.58833581 -11 7 C-7.75404061 2.5947694 -5.63852303 0 0 0 Z " fill="#1D344A" transform="translate(437,457)"/>
<path d="M0 0 C4.62 0 9.24 0 14 0 C16.42857143 7.42857143 16.42857143 7.42857143 15 11 C13.50178941 7.62902617 13 5.79557881 13 2 C8.71 1.67 4.42 1.34 0 1 C0 0.67 0 0.34 0 0 Z " fill="#F9C0BB" transform="translate(209,262)"/>
<path d="M0 0 C2.83022097 3.99560608 1.76210446 7.42737323 1 12 C2.32 12.33 3.64 12.66 5 13 C3.34385343 13.38218767 1.67542976 13.71395102 0 14 C-1 13 -1 13 -1.1328125 10.3125 C-1.13023437 9.219375 -1.12765625 8.12625 -1.125 7 C-1.12757813 5.906875 -1.13015625 4.81375 -1.1328125 3.6875 C-1 1 -1 1 0 0 Z " fill="#E14B44" transform="translate(263,224)"/>
<path d="M0 0 C0.66 0.33 1.32 0.66 2 1 C0.64199529 3.96530497 -0.92428263 6.29131271 -3.0625 8.75 C-3.85333984 9.67039062 -3.85333984 9.67039062 -4.66015625 10.609375 C-5.10230469 11.06828125 -5.54445313 11.5271875 -6 12 C-6.33 12 -6.66 12 -7 12 C-7.36923077 7.44615385 -7.36923077 7.44615385 -5.5 5.1875 C-4.7575 4.5996875 -4.7575 4.5996875 -4 4 C-3.34 4.33 -2.68 4.66 -2 5 C-1.67 4.01 -1.34 3.02 -1 2 C-0.67 1.34 -0.34 0.68 0 0 Z " fill="#E34540" transform="translate(299,279)"/>
<path d="M0 0 C0.66 0 1.32 0 2 0 C2.33 2.31 2.66 4.62 3 7 C3.66 7 4.32 7 5 7 C5.99 9.64 6.98 12.28 8 15 C7.34 15 6.68 15 6 15 C5.896875 14.360625 5.79375 13.72125 5.6875 13.0625 C5.460625 12.381875 5.23375 11.70125 5 11 C4.01 10.67 3.02 10.34 2 10 C0.19733731 6.58442859 -0.218934 3.83134499 0 0 Z " fill="#304254" transform="translate(216,271)"/>
<path d="M0 0 C0.515625 0.268125 1.03125 0.53625 1.5625 0.8125 C6.27849807 3.11003752 10.78163148 5.2093381 16 6 C12.25 8 12.25 8 10 8 C10 7.34 10 6.68 10 6 C7.36 6 4.72 6 2 6 C1.34 4.02 0.68 2.04 0 0 Z " fill="#FEDAD7" transform="translate(240,293)"/>
<path d="M0 0 C0.33 0 0.66 0 1 0 C1.63019694 10.15317287 1.63019694 10.15317287 -1 13.6875 C-1.66 14.120625 -2.32 14.55375 -3 15 C-5.475 14.01 -5.475 14.01 -8 13 C-7.34 12.34 -6.68 11.68 -6 11 C-4.68 11 -3.36 11 -2 11 C-0.85185003 8.70370006 -0.69230191 6.92301914 -0.4375 4.375 C-0.35371094 3.55773437 -0.26992188 2.74046875 -0.18359375 1.8984375 C-0.12300781 1.27195312 -0.06242187 0.64546875 0 0 Z " fill="#D7D8E0" transform="translate(272,306)"/>
<path d="M0 0 C0.99 0 1.98 0 3 0 C2.67 2.31 2.34 4.62 2 7 C1.67 6.01 1.34 5.02 1 4 C-3.95 5.485 -3.95 5.485 -9 7 C-7.79492039 4.58984078 -6.83672718 4.19684272 -4.5 2.9375 C-2.0882696 1.6858579 -2.0882696 1.6858579 0 0 Z " fill="#E6504C" transform="translate(290,284)"/>
<path d="M0 0 C3.3 0 6.6 0 10 0 C6.81099544 2.12600304 4.09585431 3.02136239 0.4375 4.125 C-1.29693359 4.65480469 -1.29693359 4.65480469 -3.06640625 5.1953125 C-6 6 -6 6 -8 6 C-8 5.34 -8 4.68 -8 4 C-5.36 3.34 -2.72 2.68 0 2 C0 1.34 0 0.68 0 0 Z " fill="#FDC6C4" transform="translate(251,217)"/>
<path d="M0 0 C0.33 0 0.66 0 1 0 C1.30357074 2.41654328 1.56844304 4.8273428 1.8125 7.25 C1.94688477 8.27287109 1.94688477 8.27287109 2.08398438 9.31640625 C2.26953125 11.328125 2.26953125 11.328125 2 15 C-0.48828125 17.484375 -0.48828125 17.484375 -3 19 C-3 17.35 -3 15.7 -3 14 C-2.34 13.67 -1.68 13.34 -1 13 C-0.53045739 9.95418731 -0.53045739 9.95418731 -0.375 6.4375 C-0.30023438 5.23996094 -0.22546875 4.04242188 -0.1484375 2.80859375 C-0.09945312 1.88175781 -0.05046875 0.95492188 0 0 Z " fill="#2D4153" transform="translate(122,481)"/>
<path d="M0 0 C0.33 0.99 0.66 1.98 1 3 C0.3503125 3.5259375 0.3503125 3.5259375 -0.3125 4.0625 C-2.68358456 6.78485635 -3.6716835 9.64758216 -5 13 C-5.66 13 -6.32 13 -7 13 C-7.33 13.66 -7.66 14.32 -8 15 C-7.34413394 11.77225466 -6.17647493 9.23896739 -4.5625 6.375 C-4.13066406 5.59898437 -3.69882812 4.82296875 -3.25390625 4.0234375 C-2 2 -2 2 0 0 Z " fill="#334557" transform="translate(347,446)"/>
<path d="M0 0 C0.33 0.66 0.66 1.32 1 2 C1.66 2 2.32 2 3 2 C3.66 3.65 4.32 5.3 5 7 C4.01 7 3.02 7 2 7 C1.67 6.34 1.34 5.68 1 5 C0.34 5 -0.32 5 -1 5 C-1.33 5.99 -1.66 6.98 -2 8 C-2.66 7.34 -3.32 6.68 -4 6 C-4 5.01 -4 4.02 -4 3 C-3.34 3 -2.68 3 -2 3 C-1.34 2.01 -0.68 1.02 0 0 Z " fill="#1A344B" transform="translate(379,287)"/>
<path d="M0 0 C1.67542976 0.28604898 3.34385343 0.61781233 5 1 C4.360625 1.474375 3.72125 1.94875 3.0625 2.4375 C0.15149728 6.05420035 0.19350218 9.47204894 0 14 C-0.33 14 -0.66 14 -1 14 C-1.02685938 11.85423363 -1.04633088 9.70837355 -1.0625 7.5625 C-1.07410156 6.36753906 -1.08570313 5.17257812 -1.09765625 3.94140625 C-1 1 -1 1 0 0 Z " fill="#E7514C" transform="translate(263,280)"/>
<path d="M0 0 C0 0.99 0 1.98 0 3 C2.31 3 4.62 3 7 3 C3.81237635 5.12508244 1.73487777 5.5020163 -2 6 C-2 5.34 -2 4.68 -2 4 C-3.32 3.34 -4.64 2.68 -6 2 C-3 0 -3 0 0 0 Z " fill="#E4504C" transform="translate(245,223)"/>
<path d="M0 0 C1.875 0.1875 1.875 0.1875 4 1 C4.28875 1.804375 4.5775 2.60875 4.875 3.4375 C5.79704705 6.33663628 5.79704705 6.33663628 9.125 7.3125 C10.07375 7.539375 11.0225 7.76625 12 8 C11.67 8.66 11.34 9.32 11 10 C5.69443391 8.88953268 3.74506621 6.88797751 0.8828125 2.55859375 C0 1 0 1 0 0 Z " fill="#203348" transform="translate(424,499)"/>
<path d="M0 0 C0.33 0 0.66 0 1 0 C0.7357513 5.37305699 0.7357513 5.37305699 0 8 C-2.5625 10 -2.5625 10 -5 11 C-5.33 10.01 -5.66 9.02 -6 8 C-5.01 7.34 -4.02 6.68 -3 6 C-2.27840576 4.35636866 -1.60648579 2.68949614 -1 1 C-0.67 0.67 -0.34 0.34 0 0 Z " fill="#EB352B" transform="translate(299,274)"/>
<path d="M0 0 C4.8 2.46153846 4.8 2.46153846 5.8125 5.1875 C5.874375 5.785625 5.93625 6.38375 6 7 C3.36 6.67 0.72 6.34 -2 6 C-1.34 4.02 -0.68 2.04 0 0 Z " fill="#1F364A" transform="translate(275,207)"/>
<path d="M0 0 C1.65 1.65 3.3 3.3 5 5 C0.38 4.01 -4.24 3.02 -9 2 C-5.48175489 -0.34549674 -4.14224306 -0.57991403 0 0 Z " fill="#FED1CD" transform="translate(280,217)"/>
<path d="M0 0 C1.28970703 -0.03867187 1.28970703 -0.03867187 2.60546875 -0.078125 C3.33378906 0.03015625 4.06210938 0.1384375 4.8125 0.25 C5.4725 1.24 6.1325 2.23 6.8125 3.25 C1.2025 2.92 -4.4075 2.59 -10.1875 2.25 C-10.1875 1.92 -10.1875 1.59 -10.1875 1.25 C-6.79676276 0.3458034 -3.49217897 0.10107609 0 0 Z " fill="#0C2035" transform="translate(221.1875,351.75)"/>
<path d="M0 0 C0.99 0 1.98 0 3 0 C3.268125 0.598125 3.53625 1.19625 3.8125 1.8125 C4.98493467 3.97224808 6.19369282 5.35790256 8 7 C7.34 8.32 6.68 9.64 6 11 C4.02 7.37 2.04 3.74 0 0 Z " fill="#213048" transform="translate(373,299)"/>
<path d="M0 0 C0.66 0.33 1.32 0.66 2 1 C-6.07744875 6.74031891 -6.07744875 6.74031891 -12 6 C-12 5.34 -12 4.68 -12 4 C-10.7625 3.71125 -9.525 3.4225 -8.25 3.125 C-5.82080792 2.52843163 -3.87344411 1.93672206 -1.625 0.8125 C-1.08875 0.544375 -0.5525 0.27625 0 0 Z " fill="#FDCEC9" transform="translate(285,295)"/>
<path d="M0 0 C-2 3 -2 3 -3.9453125 3.51171875 C-4.66460937 3.56972656 -5.38390625 3.62773437 -6.125 3.6875 C-8.043125 3.8421875 -8.043125 3.8421875 -10 4 C-4.75 -1.425 -4.75 -1.425 0 0 Z " fill="#283B4D" transform="translate(186,480)"/>
<path d="M0 0 C0.99 0.33 1.98 0.66 3 1 C3 1.66 3 2.32 3 3 C5.475 3.99 5.475 3.99 8 5 C7.34 6.98 6.68 8.96 6 11 C5.67 11 5.34 11 5 11 C4.67 9.02 4.34 7.04 4 5 C3.01 4.67 2.02 4.34 1 4 C0.3125 1.9375 0.3125 1.9375 0 0 Z " fill="#253647" transform="translate(399,438)"/>
<path d="M0 0 C1.65 0.33 3.3 0.66 5 1 C5 1.99 5 2.98 5 4 C3.68 4 2.36 4 1 4 C0.67 4.66 0.34 5.32 0 6 C-0.66 4.68 -1.32 3.36 -2 2 C-1.34 2 -0.68 2 0 2 C0 1.34 0 0.68 0 0 Z " fill="#0D2842" transform="translate(170,370)"/>
<path d="M0 0 C1.66611905 -0.042721 3.33382885 -0.04063832 5 0 C6 1 6 1 6.09765625 4.16015625 C6.08605469 5.44792969 6.07445312 6.73570312 6.0625 8.0625 C6.05347656 9.35285156 6.04445313 10.64320313 6.03515625 11.97265625 C6.02355469 12.97167969 6.01195312 13.97070312 6 15 C5.67 15 5.34 15 5 15 C4.97421875 14.15695312 4.9484375 13.31390625 4.921875 12.4453125 C4.83679688 10.80175781 4.83679688 10.80175781 4.75 9.125 C4.70359375 8.03445313 4.6571875 6.94390625 4.609375 5.8203125 C4.31153872 2.8667935 4.31153872 2.8667935 1.953125 1.6171875 C1.30859375 1.41351563 0.6640625 1.20984375 0 1 C0 0.67 0 0.34 0 0 Z " fill="#FDBAB7" transform="translate(256,300)"/>
<path d="M0 0 C0.33 0.66 0.66 1.32 1 2 C-0.54115394 6.16111563 -2.12614955 9.57874946 -5 13 C-4.54996653 7.37458159 -3.31558515 4.38512875 0 0 Z " fill="#FDD3D0" transform="translate(236,238)"/>
<path d="M0 0 C0.66 0 1.32 0 2 0 C-0.23971007 4.65170554 -2.82910564 8.92313583 -6 13 C-6.1875 10.625 -6.1875 10.625 -6 8 C-5.01 7.34 -4.02 6.68 -3 6 C-2.27840576 4.35636866 -1.60648579 2.68949614 -1 1 C-0.67 0.67 -0.34 0.34 0 0 Z " fill="#FCCECE" transform="translate(231,231)"/>
<path d="M0 0 C0.66 0.99 1.32 1.98 2 3 C1.67 3.99 1.34 4.98 1 6 C0.01 6.33 -0.98 6.66 -2 7 C-3.20882096 9.00016466 -3.20882096 9.00016466 -4 11 C-4.33 10.34 -4.66 9.68 -5 9 C-4.00390625 6.8359375 -4.00390625 6.8359375 -2.5625 4.375 C-2.08941406 3.55773437 -1.61632812 2.74046875 -1.12890625 1.8984375 C-0.75636719 1.27195313 -0.38382813 0.64546875 0 0 Z " fill="#2F4358" transform="translate(209,174)"/>
<path d="M0 0 C3 3 3 3 4 6 C4.66 5.67 5.32 5.34 6 5 C5.67 6.32 5.34 7.64 5 9 C3.68 9 2.36 9 1 9 C0.67 6.03 0.34 3.06 0 0 Z " fill="#3B4F64" transform="translate(225,376)"/>
<path d="M0 0 C-1.49739583 1.20442708 -2.99479167 2.40885417 -4.4921875 3.61328125 C-6.25292107 5.12270545 -6.25292107 5.12270545 -8 8 C-7.75 4.625 -7.75 4.625 -7 1 C-4.18767584 -1.24985933 -3.47216275 -1.15738758 0 0 Z " fill="#FDD8D1" transform="translate(260,248)"/>
<path d="M0 0 C1.32 0.33 2.64 0.66 4 1 C3.34 1 2.68 1 2 1 C1.34 2.32 0.68 3.64 0 5 C-1.65 5 -3.3 5 -5 5 C-5.33 4.34 -5.66 3.68 -6 3 C-4.02 2.67 -2.04 2.34 0 2 C0 1.34 0 0.68 0 0 Z " fill="#1E3245" transform="translate(391,495)"/>
<path d="M0 0 C0.99 0.495 0.99 0.495 2 1 C2.9807664 3.94229921 3.16488128 5.9908784 3.1875 9.0625 C3.20167969 9.94035156 3.21585937 10.81820313 3.23046875 11.72265625 C3 14 3 14 1 16 C1.33 12.7 1.66 9.4 2 6 C1.34 6 0.68 6 0 6 C0 4.02 0 2.04 0 0 Z " fill="#4C5B6A" transform="translate(275,486)"/>
<path d="M0 0 C0.66 0.33 1.32 0.66 2 1 C0.14285714 8.57142857 0.14285714 8.57142857 -3 11 C-3.33 10.01 -3.66 9.02 -4 8 C-3.67 7.34 -3.34 6.68 -3 6 C-2.34 6 -1.68 6 -1 6 C-0.67 4.02 -0.34 2.04 0 0 Z " fill="#182B40" transform="translate(237,384)"/>
<path d="M0 0 C-2.31 1.65 -4.62 3.3 -7 5 C-7.99 4.34 -8.98 3.68 -10 3 C-6.86618053 -0.60389239 -4.59270471 -1.53090157 0 0 Z " fill="#1A2F44" transform="translate(241,217)"/>
<path d="M0 0 C0.33 0.99 0.66 1.98 1 3 C-3.39453125 7.00390625 -3.39453125 7.00390625 -5 8 C-5.99 7.67 -6.98 7.34 -8 7 C-7.01 6.67 -6.02 6.34 -5 6 C-4.67 5.34 -4.34 4.68 -4 4 C-1.9375 2.875 -1.9375 2.875 0 2 C0 1.34 0 0.68 0 0 Z " fill="#24384A" transform="translate(135,499)"/>
<path d="M0 0 C0.99 0 1.98 0 3 0 C3 0.66 3 1.32 3 2 C3.99 2 4.98 2 6 2 C6.12375 2.639375 6.2475 3.27875 6.375 3.9375 C6.684375 4.9584375 6.684375 4.9584375 7 6 C7.66 6.33 8.32 6.66 9 7 C8.67 7.66 8.34 8.32 8 9 C5.06799526 6.14723863 2.35684596 3.34920216 0 0 Z " fill="#314256" transform="translate(344,497)"/>
<path d="M0 0 C2.64 0 5.28 0 8 0 C7.34 1.32 6.68 2.64 6 4 C5.01 4 4.02 4 3 4 C3 3.34 3 2.68 3 2 C2.01 1.67 1.02 1.34 0 1 C0 0.67 0 0.34 0 0 Z " fill="#314254" transform="translate(120,452)"/>
<path d="M0 0 C2.97 0.495 2.97 0.495 6 1 C6.33 2.65 6.66 4.3 7 6 C6.34 6 5.68 6 5 6 C5 6.66 5 7.32 5 8 C4.34 7.67 3.68 7.34 3 7 C3.66 5.68 4.32 4.36 5 3 C2.525 2.01 2.525 2.01 0 1 C0 0.67 0 0.34 0 0 Z " fill="#C7CFD7" transform="translate(402,440)"/>
<path d="M0 0 C2.97 0.495 2.97 0.495 6 1 C6.66 2.98 7.32 4.96 8 7 C6.66382648 6.02471263 5.3311249 5.04466681 4 4.0625 C3.2575 3.51722656 2.515 2.97195312 1.75 2.41015625 C1.1725 1.94480469 0.595 1.47945312 0 1 C0 0.67 0 0.34 0 0 Z " fill="#FBCAC3" transform="translate(289,225)"/>
<path d="M0 0 C0.99 0.66 1.98 1.32 3 2 C2.34 3.32 1.68 4.64 1 6 C-1.475 5.01 -1.475 5.01 -4 4 C-3.67 3.34 -3.34 2.68 -3 2 C-2.01 2 -1.02 2 0 2 C0 1.34 0 0.68 0 0 Z " fill="#2C3D50" transform="translate(270,464)"/>
<path d="M0 0 C0 3 0 3 -1.6875 5.1875 C-4.3961577 7.31050198 -5.64708882 7.37254569 -9 7 C-8.1646875 6.38125 -8.1646875 6.38125 -7.3125 5.75 C-4.83804044 3.87743601 -2.4164771 1.94660656 0 0 Z " fill="#C4CCD2" transform="translate(471,503)"/>
<path d="M0 0 C2.475 0.99 2.475 0.99 5 2 C5 5.63 5 9.26 5 13 C4.67 13 4.34 13 4 13 C3.96261719 12.39671875 3.92523438 11.7934375 3.88671875 11.171875 C3.43746659 5.00632228 3.43746659 5.00632228 0 0 Z " fill="#FDD0CB" transform="translate(273,249)"/>
<path d="M0 0 C0.99 0.99 1.98 1.98 3 3 C2.34 4.98 1.68 6.96 1 9 C0.01 8.34 -0.98 7.68 -2 7 C-1.34 7 -0.68 7 0 7 C0 4.69 0 2.38 0 0 Z " fill="#041C33" transform="translate(210,472)"/>
<path d="M0 0 C2.97 0 5.94 0 9 0 C7.515 1.485 7.515 1.485 6 3 C2.8125 2.6875 2.8125 2.6875 0 2 C0 1.34 0 0.68 0 0 Z " fill="#D3DAE1" transform="translate(357,402)"/>
<path d="M0 0 C1.32 0 2.64 0 4 0 C4.33 1.32 4.66 2.64 5 4 C3.35 3.67 1.7 3.34 0 3 C0 2.01 0 1.02 0 0 Z " fill="#EF332C" transform="translate(280,223)"/>
<path d="M0 0 C1.2065625 0.0309375 1.2065625 0.0309375 2.4375 0.0625 C1.4475 1.5475 1.4475 1.5475 0.4375 3.0625 C-0.2225 3.0625 -0.8825 3.0625 -1.5625 3.0625 C-1.8925 4.0525 -2.2225 5.0425 -2.5625 6.0625 C-2.8925 6.0625 -3.2225 6.0625 -3.5625 6.0625 C-3.605221 4.39638095 -3.60313832 2.72867115 -3.5625 1.0625 C-2.5625 0.0625 -2.5625 0.0625 0 0 Z " fill="#FFE9E4" transform="translate(240.5625,221.9375)"/>
<path d="M0 0 C1.9375 0.75 1.9375 0.75 4 2 C4.75 4.125 4.75 4.125 5 6 C5.66 6 6.32 6 7 6 C6.67 6.66 6.34 7.32 6 8 C3.33264727 5.51047079 1.44253657 3.36591866 0 0 Z " fill="#C8D2DA" transform="translate(83,486)"/>
<path d="M0 0 C1.5 1.1875 1.5 1.1875 3 3 C3.1875 5.6875 3.1875 5.6875 3 8 C1.68 7.67 0.36 7.34 -1 7 C-0.835 6.21625 -0.67 5.4325 -0.5 4.625 C0.0623707 2.11791961 0.0623707 2.11791961 0 0 Z " fill="#D6DFE7" transform="translate(207,470)"/>
<path d="M0 0 C0 0.66 0 1.32 0 2 C-0.99 2 -1.98 2 -3 2 C-3 3.98 -3 5.96 -3 8 C-3.66 7.67 -4.32 7.34 -5 7 C-5.625 4.4375 -5.625 4.4375 -6 2 C-2.25 0 -2.25 0 0 0 Z " fill="#3B4858" transform="translate(182,457)"/>
<path d="M0 0 C-6.93 -0.495 -6.93 -0.495 -14 -1 C-14 -1.33 -14 -1.66 -14 -2 C-12.41986783 -2.25028811 -10.83557694 -2.47440946 -9.25 -2.6875 C-8.36828125 -2.81511719 -7.4865625 -2.94273437 -6.578125 -3.07421875 C-4 -3 -4 -3 0 0 Z " fill="#E4EEF4" transform="translate(315,454)"/>
<path d="M0 0 C0.33 1.32 0.66 2.64 1 4 C-0.65 5.32 -2.3 6.64 -4 8 C-2.25 2.25 -2.25 2.25 0 0 Z " fill="#FDDFDC" transform="translate(300,282)"/>
<path d="M0 0 C0.99 0.33 1.98 0.66 3 1 C2.67 2.32 2.34 3.64 2 5 C1.01 5 0.02 5 -1 5 C-1.33 3.68 -1.66 2.36 -2 1 C-1.34 0.67 -0.68 0.34 0 0 Z " fill="#E23B38" transform="translate(265,201)"/>
<path d="M0 0 C6.875 3.75 6.875 3.75 8 6 C6.35 6 4.7 6 3 6 C2.67 4.68 2.34 3.36 2 2 C1.34 2 0.68 2 0 2 C0 1.34 0 0.68 0 0 Z " fill="#475968" transform="translate(296,151)"/>
</svg>
